<svg xmlns="http://www.w3.org/2000/svg" width="16" height="16" viewBox="0 0 16 16">
  <defs>
    <style>
      .cls-1, .cls-2 {
        fill: #ced0d8;
      }

      .cls-1 {
        opacity: 0;
      }
    </style>
  </defs>
  <g id="组_1771" data-name="组 1771" transform="translate(-24 -466)">
    <rect id="矩形_89" data-name="矩形 89" class="cls-1" width="16" height="16" transform="translate(24 466)"/>
    <g id="组_62" data-name="组 62" transform="translate(-66.642 374.387)">
      <path id="路径_79" data-name="路径 79" class="cls-2" d="M410.749,298.3c-1.4,1.222-.977-.922-.913-1.222s.975-2.144.308-2.454-2.728,1.222-2.728,1.222-.339.246-.308.311c.224.4,1.21-.311,1.21-.311s.339-.278.308,0a23.774,23.774,0,0,0-.6,3.676c.148.815,1.422.472,2.42-.611S410.749,298.3,410.749,298.3Zm-.813-4.609a1.057,1.057,0,0,0,.946-.485,1.082,1.082,0,0,0,.058-1.07,1.056,1.056,0,0,0-1.835-.1,1.082,1.082,0,0,0-.058,1.07A1.064,1.064,0,0,0,409.936,293.694Z" transform="translate(-310.444 -196.161)"/>
      <path id="路径_80" data-name="路径 80" class="cls-2" d="M104.5,105.022a7.911,7.911,0,0,0,2.133-5.409,8,8,0,1,0-8,8H106.1a.533.533,0,0,0,.352-.938l-1.953-1.653Zm-5.864,1.526a6.946,6.946,0,1,1,4.733-1.878.53.53,0,0,0-.156.42.538.538,0,0,0,.22.391l1.269,1.067Z" transform="translate(0 0)"/>
    </g>
  </g>
</svg>
