<svg xmlns="http://www.w3.org/2000/svg" width="22" height="22" viewBox="0 0 22 22">
  <defs>
    <style>
      .cls-1, .cls-2 {
        fill: #ced0d8;
      }

      .cls-1 {
        opacity: 0;
      }
    </style>
  </defs>
  <g id="组_1615" data-name="组 1615" transform="translate(-6185 -1586)">
    <rect id="矩形_745" data-name="矩形 745" class="cls-1" width="22" height="22" transform="translate(6185 1586)"/>
    <path id="路径_337" data-name="路径 337" class="cls-2" d="M16.736,20.962V18.879H14.627a1.04,1.04,0,1,1,0-2.079h2.109V14.718a1.053,1.053,0,0,1,2.105,0V16.8H20.95a1.04,1.04,0,1,1,0,2.079H18.841v2.083a1.053,1.053,0,0,1-2.105,0ZM1.021,21.2A1.01,1.01,0,0,1,0,20.214V.992A1.011,1.011,0,0,1,1.021,0a1.021,1.021,0,0,1,.954.647A13.734,13.734,0,0,1,5.447.007,9.749,9.749,0,0,1,9.721,1.138a5.553,5.553,0,0,0,3.368.851,6.692,6.692,0,0,0,3.209-.7,1.047,1.047,0,0,1,1.022.016s.4.154.4.914v9.161l0-.009a.948.948,0,0,1-.463.884,9.725,9.725,0,0,1-4.169.976,9.2,9.2,0,0,1-4.281-1.085A5.759,5.759,0,0,0,5.375,11.3a6.68,6.68,0,0,0-3.333.8v8.111a1.01,1.01,0,0,1-1.011.991ZM9.7,10.345a5.534,5.534,0,0,0,3.423.832s2.181.134,2.5-.633l.013-7a4.4,4.4,0,0,1-2.572.448A8.466,8.466,0,0,1,8.754,2.909a6.885,6.885,0,0,0-3.385-.851,6.581,6.581,0,0,0-3.333.824V9.917a11.4,11.4,0,0,1,3.408-.633A9.288,9.288,0,0,1,9.7,10.345Z" transform="translate(6185 1586)"/>
  </g>
</svg>
