<svg xmlns="http://www.w3.org/2000/svg" width="22" height="22" viewBox="0 0 22 22">
  <defs>
    <style>
      .cls-1, .cls-2 {
        fill: #09f;
      }

      .cls-1 {
        opacity: 0;
      }
    </style>
  </defs>
  <g id="组_1640" data-name="组 1640" transform="translate(-6185 -1858)">
    <rect id="矩形_761" data-name="矩形 761" class="cls-1" width="22" height="22" transform="translate(6185 1858)"/>
    <path id="路径_347" data-name="路径 347" class="cls-2" d="M693.429,149.694v-4.98h.834a.736.736,0,0,0,.737-.736v-3.241a.736.736,0,0,0-.737-.737h-3.241a.736.736,0,0,0-.736.737v.834H677.714v-.834a.736.736,0,0,0-.736-.737h-3.241a.736.736,0,0,0-.737.737v3.241a.736.736,0,0,0,.737.736h.834v12.572h-.834a.736.736,0,0,0-.737.736v3.241a.736.736,0,0,0,.737.737h3.241a.736.736,0,0,0,.736-.737v-.834h12.572v.834a.736.736,0,0,0,.736.737h3.241a.736.736,0,0,0,.737-.737v-3.241a.736.736,0,0,0-.737-.736h-.834Zm-2.137-8.687h2.7v2.7h-2.7Zm-3.1,2.136-12.048,12.048v-3.668l8.38-8.38Zm-14.184.565v-2.7h2.7v2.7Zm2.971,1.006a.735.735,0,0,0,.736-.736v-.835H682.3l-6.155,6.158v-4.587Zm-.27,16.279h-2.7v-2.7h2.7Zm1.006-2.136v-.835a.735.735,0,0,0-.736-.736h-.705l14.013-14.013v.705a.735.735,0,0,0,.736.736h.835v.43l-13.713,13.713Zm2.652,0,11.491-11.491v3.7l-7.788,7.788Zm13.627-.565v2.7h-2.7v-2.7Zm-2.971-1.006a.735.735,0,0,0-.736.736v.835h-3.939l5.51-5.51v3.939Zm0,0" transform="translate(5512 1718)"/>
  </g>
</svg>
