<svg xmlns="http://www.w3.org/2000/svg" width="22" height="22" viewBox="0 0 22 22">
  <defs>
    <style>
      .cls-1, .cls-2 {
        fill: #09f;
      }

      .cls-1 {
        opacity: 0;
      }
    </style>
  </defs>
  <g id="组_1633" data-name="组 1633" transform="translate(-6185 -1620)">
    <rect id="矩形_747" data-name="矩形 747" class="cls-1" width="22" height="22" transform="translate(6185 1620)"/>
    <g id="组_255" data-name="组 255" transform="translate(194.79 1264.182)">
      <path id="路径_334" data-name="路径 334" class="cls-2" d="M15.143,7.8A6.332,6.332,0,0,1,9,13,6.332,6.332,0,0,1,2.857,7.8h-3.6A1.277,1.277,0,0,1-2,6.5,1.277,1.277,0,0,1-.746,5.2h3.6A6.332,6.332,0,0,1,9,0a6.332,6.332,0,0,1,6.143,5.2h3.6a1.3,1.3,0,0,1,0,2.6ZM9,10.4a3.832,3.832,0,0,0,3.761-3.9A3.832,3.832,0,0,0,9,2.6,3.832,3.832,0,0,0,5.239,6.5,3.832,3.832,0,0,0,9,10.4Z" transform="translate(5990.21 375.818) rotate(-90)"/>
      <path id="路径_335" data-name="路径 335" class="cls-2" d="M88.81,103.864h-2.2v-2.177a1.1,1.1,0,0,0-2.194,0v2.177h-2.2a1.087,1.087,0,1,0,0,2.174h2.2v2.177a1.1,1.1,0,0,0,2.194,0v-2.177h2.2a1.087,1.087,0,1,0,0-2.174Z" transform="translate(5922.306 268.518)"/>
    </g>
  </g>
</svg>
