<svg xmlns="http://www.w3.org/2000/svg" width="22" height="22" viewBox="0 0 22 22">
  <defs>
    <style>
      .cls-1, .cls-2 {
        fill: #09f;
      }

      .cls-1 {
        opacity: 0;
      }
    </style>
  </defs>
  <g id="组_1634" data-name="组 1634" transform="translate(-6185 -1654)">
    <rect id="矩形_749" data-name="矩形 749" class="cls-1" width="22" height="22" transform="translate(6185 1654)"/>
    <path id="联合_2" data-name="联合 2" class="cls-2" d="M15.513,20.915V18.738h-2.2a1.087,1.087,0,1,1,0-2.174h2.2V14.387a1.1,1.1,0,0,1,2.193,0v2.178h2.2a1.087,1.087,0,1,1,0,2.174h-2.2v2.177a1.1,1.1,0,0,1-2.193,0ZM7.93,22a.526.526,0,0,1-.492-.551V11H-.016A1.05,1.05,0,0,1-1,9.9V1.1A1.05,1.05,0,0,1-.016,0H16.835a1.05,1.05,0,0,1,.984,1.1V9.9a1.05,1.05,0,0,1-.984,1.1H9.382V21.449A.526.526,0,0,1,8.889,22ZM.968,8.8H15.851V2.2H.968ZM2.89,6.625V4.451H13.953V6.625Z" transform="translate(6186 1654)"/>
  </g>
</svg>
