<svg xmlns="http://www.w3.org/2000/svg" width="22" height="22" viewBox="0 0 22 22">
  <defs>
    <style>
      .cls-1, .cls-2 {
        fill: #ced0d8;
      }

      .cls-1 {
        opacity: 0;
      }
    </style>
  </defs>
  <g id="组_1618" data-name="组 1618" transform="translate(-6185 -1688)">
    <rect id="矩形_751" data-name="矩形 751" class="cls-1" width="22" height="22" transform="translate(6185 1688)"/>
    <path id="路径_336" data-name="路径 336" class="cls-2" d="M103.667,105.333h-7.5v-1.667h7.5v-7.5h1.666v9.167ZM87.152,87.151v5.455h5.454V87.151H87.151Zm-.3-1.818h6.061a1.515,1.515,0,0,1,1.515,1.515v6.061a1.515,1.515,0,0,1-1.515,1.515H86.848a1.515,1.515,0,0,1-1.515-1.515V86.848A1.515,1.515,0,0,1,86.848,85.333Zm.3,12.727v5.454h5.455V98.06H87.151Zm-.3-1.819h6.061a1.515,1.515,0,0,1,1.515,1.515v6.061a1.515,1.515,0,0,1-1.515,1.515H86.848a1.515,1.515,0,0,1-1.515-1.515V97.757A1.515,1.515,0,0,1,86.848,96.242Zm11.213-9.091v5.455h5.454V87.151H98.06Zm-.3-1.818h6.061a1.515,1.515,0,0,1,1.515,1.515v6.061a1.515,1.515,0,0,1-1.515,1.515H97.757a1.515,1.515,0,0,1-1.515-1.515V86.848A1.515,1.515,0,0,1,97.757,85.333ZM96.167,96.167h1.666v5H96.167Zm3.333,0h1.667V102H99.5V96.167Z" transform="translate(6100.667 1603.667)"/>
  </g>
</svg>
