<svg xmlns="http://www.w3.org/2000/svg" width="22" height="22" viewBox="0 0 22 22">
  <defs>
    <style>
      .cls-1, .cls-2 {
        fill: #ced0d8;
      }

      .cls-1 {
        opacity: 0;
      }
    </style>
  </defs>
  <g id="组_1622" data-name="组 1622" transform="translate(-6185 -1824)">
    <rect id="矩形_760" data-name="矩形 760" class="cls-1" width="22" height="22" transform="translate(6185 1824)"/>
    <path id="路径_346" data-name="路径 346" class="cls-2" d="M691.778,117.778H694V120h-2.222Zm0-2.222H694v-2.223h-2.222ZM674,111.111h2.223v-2.222H674Zm0,4.445h2.223v-2.223H674Zm0-8.889h2.223v-2.223H674Zm0-4.444h2.223V100H674Zm4.444,0h2.223V100h-2.223ZM687.333,120h2.223v-2.222h-2.223Zm-4.444,0h2.222v-2.222h-2.222Zm4.444,0h2.223v-2.222h-2.223Zm-8.889,0h2.223v-2.222h-2.223ZM674,120h2.223v-2.222H674Zm20-14.444A5.564,5.564,0,0,0,688.444,100h-5.555v2.223h5.555a3.336,3.336,0,0,1,3.334,3.333v5.555H694Zm0,0" transform="translate(5512 1725)"/>
  </g>
</svg>
