<svg xmlns="http://www.w3.org/2000/svg" width="22" height="22" viewBox="0 0 22 22">
  <defs>
    <style>
      .cls-1 {
        fill: #fff;
        opacity: 0;
      }

      .cls-2 {
        fill: #ced0d8;
      }
    </style>
  </defs>
  <g id="组_2742" data-name="组 2742" transform="translate(-420 -3147)">
    <rect id="矩形_2615" data-name="矩形 2615" class="cls-1" width="22" height="22" transform="translate(420 3147)"/>
    <path id="路径_6705" data-name="路径 6705" class="cls-2" d="M27.567,26.422c-.756,3.3-3.313,6.821-8.223,6.821v3.443a11.814,11.814,0,0,0,11.777-9.534c.756-3.3,3.313-6.821,8.223-6.821V16.886A11.813,11.813,0,0,0,27.567,26.422ZM35.9,32.956a2.458,2.458,0,0,0-2.333,1.66H28.508a12.659,12.659,0,0,1-1.976,1.513h7.033A2.463,2.463,0,1,0,35.9,32.956ZM22.79,20.616a2.457,2.457,0,0,0,2.331-1.658h5.057a12.794,12.794,0,0,1,1.976-1.513H25.121a2.463,2.463,0,1,0-2.331,3.171Z" transform="translate(401.656 3131.214)"/>
  </g>
</svg>
