<svg xmlns="http://www.w3.org/2000/svg" width="16" height="16" viewBox="0 0 16 16">
  <defs>
    <style>
      .cls-1 {
        fill: #ced0d8;
      }
    </style>
  </defs>
  <path id="路径_347" data-name="路径 347" class="cls-1" d="M687.857,147.05v-3.622h.607a.535.535,0,0,0,.536-.535v-2.357a.535.535,0,0,0-.536-.536h-2.357a.535.535,0,0,0-.535.536v.607h-9.143v-.607a.535.535,0,0,0-.535-.536h-2.357a.535.535,0,0,0-.536.536v2.357a.535.535,0,0,0,.536.535h.607v9.143h-.607a.535.535,0,0,0-.536.535v2.357a.535.535,0,0,0,.536.536h2.357a.535.535,0,0,0,.535-.536v-.607h9.143v.607a.535.535,0,0,0,.535.536h2.357a.535.535,0,0,0,.536-.536v-2.357a.535.535,0,0,0-.536-.535h-.607Zm-1.554-6.318h1.964V142.7H686.3Zm-2.255,1.553-8.762,8.762V148.38l6.095-6.095Zm-10.316.411v-1.964H675.7V142.7Zm2.161.732a.535.535,0,0,0,.535-.535v-.607h3.334l-4.476,4.479v-3.336Zm-.2,11.839h-1.964V153.3H675.7Zm.732-1.553v-.607a.535.535,0,0,0-.535-.535h-.513l10.191-10.191v.513a.535.535,0,0,0,.535.535h.607v.313l-9.973,9.973Zm1.929,0,8.357-8.357v2.693l-5.664,5.664Zm9.911-.411v1.964H686.3V153.3Zm-2.161-.732a.535.535,0,0,0-.535.535v.607h-2.865l4.007-4.007v2.865Zm0,0" transform="translate(-673 -140)"/>
</svg>
