<svg xmlns="http://www.w3.org/2000/svg" width="16" height="22" viewBox="0 0 16 22">
  <defs>
    <style>
      .cls-1 {
        fill: #ced0d8;
      }
    </style>
  </defs>
  <path id="路径_535" data-name="路径 535" class="cls-1" d="M3596-93h8a4,4,0,0,0,4-4v-14a4,4,0,0,0-4-4h-8a4,4,0,0,0-4,4v14A4,4,0,0,0,3596-93Zm5.787-18a.366.366,0,0,1,.244.1l.915.767a.245.245,0,0,1,0,.307l-4.578,5.523a.41.41,0,0,0,0,.46l4.425,5.523a.356.356,0,0,1,0,.46l-.762.768a.359.359,0,0,1-.245.1.268.268,0,0,1-.214-.1l-5.647-6.75a.384.384,0,0,1,0-.46l5.647-6.6A.268.268,0,0,1,3601.786-111Z" transform="translate(-3592 115)"/>
</svg>
