<svg xmlns="http://www.w3.org/2000/svg" width="26" height="20" viewBox="0 0 26 20">
  <defs>
    <style>
      .cls-1 {
        fill: #5a5d74;
      }

      .cls-2 {
        fill: #ced0d8;
      }

      .cls-3, .cls-5 {
        fill: none;
      }

      .cls-3 {
        stroke: #5a5d74;
        stroke-width: 2px;
      }

      .cls-4 {
        stroke: none;
      }
    </style>
  </defs>
  <g id="组_2804" data-name="组 2804" transform="translate(-36 -643)">
    <path id="矩形_2622" data-name="矩形 2622" class="cls-1" d="M0,0H2A2,2,0,0,1,4,2V8a2,2,0,0,1-2,2H0a0,0,0,0,1,0,0V0A0,0,0,0,1,0,0Z" transform="translate(58 648)"/>
    <rect id="矩形_2623" data-name="矩形 2623" class="cls-2" width="15" height="12" rx="1" transform="translate(40 647)"/>
    <g id="矩形_2621" data-name="矩形 2621" class="cls-3" transform="translate(36 643)">
      <rect class="cls-4" width="23" height="20" rx="4"/>
      <rect class="cls-5" x="1" y="1" width="21" height="18" rx="3"/>
    </g>
    <path id="矩形_2624" data-name="矩形 2624" class="cls-1" d="M1,0H12a0,0,0,0,1,0,0V12a0,0,0,0,1,0,0H1a1,1,0,0,1-1-1V1A1,1,0,0,1,1,0Z" transform="translate(40 647)"/>
  </g>
</svg>
