<svg xmlns="http://www.w3.org/2000/svg" width="26" height="20" viewBox="0 0 26 20">
  <defs>
    <style>
      .cls-1 {
        fill: #5a5d74;
      }

      .cls-2 {
        fill: #ced0d8;
      }

      .cls-3, .cls-5, .cls-7 {
        fill: none;
      }

      .cls-3 {
        stroke: #5a5d74;
        stroke-width: 2px;
      }

      .cls-4 {
        fill: #54dec7;
      }

      .cls-5 {
        stroke: #fff;
        stroke-linecap: round;
        stroke-linejoin: round;
      }

      .cls-6 {
        stroke: none;
      }
    </style>
  </defs>
  <g id="组_2846" data-name="组 2846" transform="translate(-108 -673)">
    <g id="组_2826" data-name="组 2826" transform="translate(72 30)">
      <path id="矩形_2622" data-name="矩形 2622" class="cls-1" d="M0,0H2A2,2,0,0,1,4,2V8a2,2,0,0,1-2,2H0a0,0,0,0,1,0,0V0A0,0,0,0,1,0,0Z" transform="translate(58 648)"/>
      <rect id="矩形_2623" data-name="矩形 2623" class="cls-2" width="15" height="12" rx="1" transform="translate(40 647)"/>
      <g id="矩形_2621" data-name="矩形 2621" class="cls-3" transform="translate(36 643)">
        <rect class="cls-6" width="23" height="20" rx="4"/>
        <rect class="cls-7" x="1" y="1" width="21" height="18" rx="3"/>
      </g>
      <path id="矩形_2624" data-name="矩形 2624" class="cls-1" d="M1,0H4A0,0,0,0,1,4,0V12a0,0,0,0,1,0,0H1a1,1,0,0,1-1-1V1A1,1,0,0,1,1,0Z" transform="translate(40 647)"/>
    </g>
    <g id="组_2831" data-name="组 2831" transform="translate(-1171 -4980)">
      <circle id="椭圆_131" data-name="椭圆 131" class="cls-4" cx="4" cy="4" r="4" transform="translate(1279 5665)"/>
      <path id="路径_1744" data-name="路径 1744" class="cls-5" d="M-2829.058,5597.069l-2.611.972,1.735,1.351-2.338.9" transform="matrix(0.966, -0.259, 0.259, 0.966, 2568.245, -471.511)"/>
    </g>
  </g>
</svg>
