<svg xmlns="http://www.w3.org/2000/svg" width="18" height="18" viewBox="0 0 18 18">
  <defs>
    <style>
      .cls-1, .cls-2 {
        fill: #fff;
      }

      .cls-1 {
        opacity: 0;
      }
    </style>
  </defs>
  <g id="组_1147" data-name="组 1147" transform="translate(-254 -117)">
    <rect id="矩形_851" data-name="矩形 851" class="cls-1" width="18" height="18" transform="translate(254 117)"/>
    <path id="路径_436" data-name="路径 436" class="cls-2" d="M53.506,181.05c-1.025.9-1.7.843-2.4.163l-.793-.833a1.717,1.717,0,0,1,0-2.461l3.395-3.331a1.8,1.8,0,0,1,2.508,0l.627.615a1.717,1.717,0,0,1,.365,1.941l1.516,1.135a2.575,2.575,0,0,0,0-3.691l-1.881-1.845a2.7,2.7,0,0,0-3.762,0l-4.649,4.561a2.575,2.575,0,0,0,0,3.691l1.881,1.846a2.7,2.7,0,0,0,3.762,0l1.795-1.815-1.282-1.2ZM65,173.359l-1.881-1.846a2.7,2.7,0,0,0-3.762,0s.074-.018-1.019,1.054l1.249,1.171.555-.6a1.8,1.8,0,0,1,2.508,0l.627.615a1.717,1.717,0,0,1,0,2.461l-3.062,3.113a1.8,1.8,0,0,1-2.508,0l-.516-.833c-1.087-.795-.753-.985-.661-1.521l-1.379-1.335a2.575,2.575,0,0,0,0,3.691l1.881,1.846a2.7,2.7,0,0,0,3.762,0L65,177.05C66.479,175.378,65,173.359,65,173.359Z" transform="translate(206.344 -51.177)"/>
  </g>
</svg>
