<svg xmlns="http://www.w3.org/2000/svg" width="22" height="22" viewBox="0 0 22 22">
  <defs>
    <style>
      .cls-1, .cls-2 {
        fill: #5a5d74;
      }

      .cls-1 {
        opacity: 0;
      }
    </style>
  </defs>
  <g id="组_1077" data-name="组 1077" transform="translate(-1035 -1337)">
    <rect id="矩形_809" data-name="矩形 809" class="cls-1" width="22" height="22" transform="translate(1035 1337)"/>
    <path id="路径_541" data-name="路径 541" class="cls-2" d="M1.169,9.148H5.055l-.733-.8a.893.893,0,0,1-.009-1.19.748.748,0,0,1,.556-.252.772.772,0,0,1,.547.242L7.522,9.43a.858.858,0,0,1,.167.282.959.959,0,0,1,.065.333.878.878,0,0,1-.232.6l-2.1,2.279a.741.741,0,0,1-.538.232.751.751,0,0,1-.529-.222.9.9,0,0,1-.037-1.2l.825-.9H1.169A.82.82,0,0,1,.39,9.985.811.811,0,0,1,1.169,9.148ZM9.4,0a.526.526,0,0,0-.121.01H.992A.984.984,0,0,0,0,.988a.971.971,0,0,0,1,.968H8.616l.009,16.1H1A.969.969,0,1,0,1,19.99H9.284A.452.452,0,0,0,9.4,20a.892.892,0,0,0,.779-.968L10.175.968A.885.885,0,0,0,9.4,0ZM21.61,9.995a.82.82,0,0,1-.779.847H16.852l.825.9a.9.9,0,0,1-.037,1.2.767.767,0,0,1-.529.222.756.756,0,0,1-.538-.232l-2.1-2.279a.878.878,0,0,1-.232-.6.982.982,0,0,1,.232-.615l2.105-2.279a.733.733,0,0,1,.547-.242.764.764,0,0,1,.556.252.893.893,0,0,1-.009,1.19l-.733.8h3.886A.8.8,0,0,1,21.61,9.995ZM11.825.968l-.009,18.064A.892.892,0,0,0,12.6,20a.526.526,0,0,0,.121-.01H21a.969.969,0,1,0,0-1.936H13.374l.009-16.107H21A.969.969,0,1,0,21,.01H12.716A.452.452,0,0,0,12.6,0a.892.892,0,0,0-.77.968Z" transform="translate(1035 1338)"/>
  </g>
</svg>
