<svg xmlns="http://www.w3.org/2000/svg" width="22" height="22" viewBox="0 0 22 22">
  <defs>
    <style>
      .cls-1, .cls-2 {
        fill: #FF0000;
      }

      .cls-1 {
        opacity: 0;
      }
    </style>
  </defs>
  <g id="组_1079" data-name="组 1079" transform="translate(-1206 -4288)">
    <rect id="矩形_809" data-name="矩形 809" class="cls-1" width="22" height="22" transform="translate(1206 4288)"/>
    <g id="组_1078" data-name="组 1078" transform="translate(-11.816)">
      <path id="路径_541" data-name="路径 541" class="cls-2" d="M21.449,9.995a.815.815,0,0,1-.766.847H16.77l.812.9a.911.911,0,0,1-.036,1.2.748.748,0,0,1-.52.222.738.738,0,0,1-.529-.232l-2.062-2.279a.887.887,0,0,1-.228-.6.992.992,0,0,1,.228-.615l2.071-2.279a.716.716,0,0,1,.538-.242.746.746,0,0,1,.547.252.9.9,0,0,1-.009,1.19l-.721.8h3.822A.793.793,0,0,1,21.449,9.995ZM11.825.968l-.009,18.064a.888.888,0,0,0,.766.968.509.509,0,0,0,.119-.01h7.146a.968.968,0,1,0,0-1.936h-6.5l.009-16.107h6.49a.963.963,0,0,0,.985-.968A.963.963,0,0,0,19.847.01H12.7A.437.437,0,0,0,12.582,0a.888.888,0,0,0-.757.968Z" transform="translate(1206 4289)"/>
      <path id="路径_542" data-name="路径 542" class="cls-2" d="M1.149,9.148H4.972l-.721-.8a.9.9,0,0,1-.009-1.19.731.731,0,0,1,.547-.252.754.754,0,0,1,.538.242L7.4,9.43a.861.861,0,0,1,.164.282.973.973,0,0,1,.064.333.887.887,0,0,1-.228.6L5.337,12.92a.723.723,0,0,1-.529.232.732.732,0,0,1-.52-.222.911.911,0,0,1-.036-1.2l.812-.9H1.149a.815.815,0,0,1-.766-.847A.805.805,0,0,1,1.149,9.148ZM9.241,0a.509.509,0,0,0-.119.01H1.976A.976.976,0,0,0,1,.988a.963.963,0,0,0,.985.968h6.49l.009,16.1h-6.5a.968.968,0,1,0,0,1.936H9.132A.437.437,0,0,0,9.25,20a.888.888,0,0,0,.766-.968L10.007.968A.881.881,0,0,0,9.241,0Z" transform="translate(1229.8 4289)"/>
    </g>
  </g>
</svg>
