<svg xmlns="http://www.w3.org/2000/svg" width="36" height="36" viewBox="0 0 36 36">
  <defs>
    <style>
      .cls-1 {
        fill: #09f;
      }

      .cls-2, .cls-3 {
        fill: #fff;
      }

      .cls-2 {
        opacity: 0;
      }
    </style>
  </defs>
  <g id="组_2702" data-name="组 2702" transform="translate(6156 -2055)">
    <circle id="椭圆_439" data-name="椭圆 439" class="cls-1" cx="18" cy="18" r="18" transform="translate(-6156 2055)"/>
    <g id="组_1088" data-name="组 1088" transform="translate(-6169 -3265)">
      <rect id="矩形_985" data-name="矩形 985" class="cls-2" width="22" height="22" transform="translate(20 5327)"/>
      <path id="路径_111" data-name="路径 111" class="cls-3" d="M116.412,70.091h-4.334a.82.82,0,0,1-.846-.785V65.379a1.64,1.64,0,0,0-1.692-1.571h-5.077a1.629,1.629,0,0,0-1.692,1.571v3.927a.82.82,0,0,1-.846.785h-4.35A1.579,1.579,0,0,0,96,71.662V74.8a1.579,1.579,0,0,0,1.574,1.571h.11v7.854A1.64,1.64,0,0,0,99.376,85.8h12.651c.015,0,.027.008.042.008s.027-.008.042-.008h2.5a1.64,1.64,0,0,0,1.692-1.571V76.375h.108A1.593,1.593,0,0,0,118,74.8V71.662A1.589,1.589,0,0,0,116.412,70.091Zm-1.8,12.567a1.64,1.64,0,0,1-1.692,1.571v-5.49a.849.849,0,0,0-1.692,0v5.49H107.84V78.723a.849.849,0,0,0-1.692,0v5.506h-3.385V78.723a.849.849,0,0,0-1.692,0v5.506a1.64,1.64,0,0,1-1.692-1.571V76.375H114.61Zm1.7-8.64a.786.786,0,0,1-.8.785H98.471a.772.772,0,0,1-.779-.785V72.448a.782.782,0,0,1,.779-.785h4.3a1.683,1.683,0,0,0,1.19-.536,1.605,1.605,0,0,0,.5-1.035V66.164a.81.81,0,0,1,.846-.785h3.385a.82.82,0,0,1,.846.785v3.927a1.64,1.64,0,0,0,1.692,1.571h4.282a.8.8,0,0,1,.8.785Z" transform="translate(-76 5263.192)"/>
    </g>
  </g>
</svg>
