<svg xmlns="http://www.w3.org/2000/svg" width="22" height="22" viewBox="0 0 22 22">
  <defs>
    <style>
      .cls-1, .cls-2 {
        fill: #09f;
      }

      .cls-1 {
        opacity: 0;
      }
    </style>
  </defs>
  <g id="组_1647" data-name="组 1647" transform="translate(-6185 -2096)">
    <rect id="矩形_774" data-name="矩形 774" class="cls-1" width="22" height="22" transform="translate(6185 2096)"/>
    <g id="组_287" data-name="组 287" transform="translate(5485.484 1636.327)">
      <g id="组_286" data-name="组 286">
        <rect id="矩形_776" data-name="矩形 776" class="cls-2" width="2" height="21.906" transform="translate(702.251 463.822) rotate(-45)"/>
      </g>
      <path id="路径_360" data-name="路径 360" class="cls-2" d="M713.005,459.673h-.135l-4.934,4.884,1.584,1.584,3.35-3.356h.135l5.4,5.413v.135l-3.346,3.352,1.555,1.555,4.9-4.907V468.2Zm-3.05,20.241,3.131-3.136-1.555-1.555L710.36,476.4l-5.539-5.548,1.166-1.168-1.6-1.6-2.938,2.908a6.426,6.426,0,0,0-.675,8.39,5.83,5.83,0,0,0,4.458,2.3h11.888V480.32h-7.7C709.55,480.185,709.82,480.049,709.955,479.914Zm-4.323-.406a3.781,3.781,0,0,1-3.107-1.624,3.927,3.927,0,0,1,.27-5.142l5.539,5.548A4.475,4.475,0,0,1,705.632,479.508Z"/>
    </g>
  </g>
</svg>
