<svg xmlns="http://www.w3.org/2000/svg" width="14" height="14" viewBox="0 0 14 14">
  <defs>
    <style>
      .cls-1 {
        fill: #fff;
        opacity: 0;
      }

      .cls-2 {
        fill: #ced0d8;
      }
    </style>
  </defs>
  <g id="组_1750" data-name="组 1750" transform="translate(-1047 -5822)">
    <rect id="矩形_117" data-name="矩形 117" class="cls-1" width="14" height="14" transform="translate(1047 5822)"/>
    <g id="组_366" data-name="组 366" transform="translate(486 4496)">
      <path id="路径_388" data-name="路径 388" class="cls-2" d="M90.833,0a5.41,5.41,0,0,0-5.5,5.254c0,4.658,5.06,7.529,5.28,7.637a.221.221,0,0,0,.22.108.335.335,0,0,0,.22-.054c.22-.108,5.28-3.033,5.28-7.638A5.419,5.419,0,0,0,90.833,0Zm0,11.917c-.88-.542-4.4-3.033-4.4-6.554a4.4,4.4,0,0,1,8.8,0C95.233,8.883,91.713,11.375,90.833,11.917Zm0-9.208a2.709,2.709,0,1,0,2.75,2.708A2.7,2.7,0,0,0,90.833,2.708Zm0,4.333a1.625,1.625,0,1,1,1.65-1.625A1.608,1.608,0,0,1,90.833,7.042Z" transform="translate(475.667 1326)"/>
      <path id="路径_391" data-name="路径 391" class="cls-2" d="M221.452,220.351l-1.062-1.062,1.047-1.047a.547.547,0,0,0,.014-.777l-.005-.005a.566.566,0,0,0-.793,0l-1.047,1.047-1.046-1.046a.566.566,0,0,0-.793,0l-.005.005a.551.551,0,0,0,.014.78l1.046,1.046-1.06,1.06a.551.551,0,0,0,.015.78l.005.005a.531.531,0,0,0,.764,0l1.06-1.06,1.062,1.062a.531.531,0,0,0,.764,0l.005-.005a.547.547,0,0,0,.015-.777Z" transform="translate(353.393 1118.704)"/>
    </g>
  </g>
</svg>
