<svg xmlns="http://www.w3.org/2000/svg" width="22" height="22" viewBox="0 0 22 22">
  <defs>
    <style>
      .cls-1, .cls-2 {
        fill: #fff;
      }

      .cls-1 {
        opacity: 0;
      }
    </style>
  </defs>
  <g id="组_1687" data-name="组 1687" transform="translate(-20 -5285)">
    <rect id="矩形_986" data-name="矩形 986" class="cls-1" width="22" height="22" transform="translate(20 5285)"/>
    <path id="路径_372" data-name="路径 372" class="cls-2" d="M75.786,65.571a9.492,9.492,0,0,1,8.643,8.643h.786a.786.786,0,0,1,0,1.571h-.786a9.492,9.492,0,0,1-8.643,8.643v.786a.786.786,0,0,1-1.571,0v-.786a9.56,9.56,0,0,1-8.643-8.643h-.786a.786.786,0,1,1,0-1.571h.786a9.56,9.56,0,0,1,8.643-8.643v-.786a.786.786,0,1,1,1.571,0Zm0,1.571v3.143a.786.786,0,1,1-1.571,0V67.143a7.945,7.945,0,0,0-7.071,7.071h3.143a.786.786,0,1,1,0,1.571H67.143a7.945,7.945,0,0,0,7.071,7.071V79.714a.786.786,0,1,1,1.571,0v3.143a7.945,7.945,0,0,0,7.071-7.071H79.714a.786.786,0,1,1,0-1.571h3.143A8.018,8.018,0,0,0,75.786,67.143Z" transform="translate(-44 5221)"/>
  </g>
</svg>
