<svg xmlns="http://www.w3.org/2000/svg" width="36" height="36" viewBox="0 0 36 36">
  <defs>
    <style>
      .cls-1 {
        fill: #09f;
      }

      .cls-2, .cls-3 {
        fill: #fff;
      }

      .cls-2 {
        opacity: 0;
      }
    </style>
  </defs>
  <g id="组_2701" data-name="组 2701" transform="translate(6156 -2013)">
    <circle id="椭圆_438" data-name="椭圆 438" class="cls-1" cx="18" cy="18" r="18" transform="translate(-6156 2013)"/>
    <g id="组_1087" data-name="组 1087" transform="translate(-6169 -3265)">
      <rect id="矩形_986" data-name="矩形 986" class="cls-2" width="22" height="22" transform="translate(20 5285)"/>
      <path id="路径_372" data-name="路径 372" class="cls-3" d="M75.786,65.571a9.492,9.492,0,0,1,8.643,8.643h.786a.786.786,0,0,1,0,1.571h-.786a9.492,9.492,0,0,1-8.643,8.643v.786a.786.786,0,0,1-1.571,0v-.786a9.56,9.56,0,0,1-8.643-8.643h-.786a.786.786,0,1,1,0-1.571h.786a9.56,9.56,0,0,1,8.643-8.643v-.786a.786.786,0,1,1,1.571,0Zm0,1.571v3.143a.786.786,0,1,1-1.571,0V67.143a7.945,7.945,0,0,0-7.071,7.071h3.143a.786.786,0,1,1,0,1.571H67.143a7.945,7.945,0,0,0,7.071,7.071V79.714a.786.786,0,1,1,1.571,0v3.143a7.945,7.945,0,0,0,7.071-7.071H79.714a.786.786,0,1,1,0-1.571h3.143A8.018,8.018,0,0,0,75.786,67.143Z" transform="translate(-44 5221)"/>
    </g>
  </g>
</svg>
