<svg xmlns="http://www.w3.org/2000/svg" width="16" height="16" viewBox="0 0 16 16">
  <defs>
    <style>
      .cls-1, .cls-2 {
        fill: #ced0d8;
      }

      .cls-1 {
        opacity: 0;
      }
    </style>
  </defs>
  <g id="组_1119" data-name="组 1119" transform="translate(-1148 -324)">
    <rect id="矩形_996" data-name="矩形 996" class="cls-1" width="16" height="16" transform="translate(1148 324)"/>
    <path id="路径_550" data-name="路径 550" class="cls-2" d="M8,16H7.99a8,8,0,1,1,.02,0ZM3.38,3.38a6.535,6.535,0,1,0,9.241,9.241,6.535,6.535,0,0,0-4.6-11.155H8A6.493,6.493,0,0,0,3.38,3.38Zm6.835,8.226C9.6,11.018,7.64,9.2,7.036,8.6A.8.8,0,0,1,6.8,8.016c0-1.161-.005-2.322,0-3.486a.861.861,0,0,1,.88-.851.961.961,0,0,1,.99.864c.005.491-.012,2.467,0,2.965a.409.409,0,0,0,.111.245c.463.463,2.192,2.14,2.652,2.605a.85.85,0,0,1-.347,1.436.992.992,0,0,1-.3.048A.815.815,0,0,1,10.215,11.606Z" transform="translate(1148 324)"/>
  </g>
</svg>
