<svg xmlns="http://www.w3.org/2000/svg" width="10" height="10" viewBox="0 0 10 10">
  <defs>
    <style>
      .cls-1 {
        fill: #ced0d8;
      }
    </style>
  </defs>
  <path id="路径_89" data-name="路径 89" class="cls-1" d="M112.549,122.462l4.072-4.073a.533.533,0,0,0,0-.75l-.022-.022a.533.533,0,0,0-.75,0l-4.072,4.079-4.072-4.079a.533.533,0,0,0-.75,0l-.022.022a.524.524,0,0,0,0,.75L111,122.462l-4.072,4.073a.533.533,0,0,0,0,.75l.022.022a.533.533,0,0,0,.75,0l4.072-4.073,4.072,4.073a.533.533,0,0,0,.75,0l.022-.022a.533.533,0,0,0,0-.75Z" transform="translate(-106.775 -117.462)"/>
</svg>
