<svg xmlns="http://www.w3.org/2000/svg" width="14" height="12" viewBox="0 0 14 12">
  <defs>
    <style>
      .cls-1 {
        fill: #09f;
      }
    </style>
  </defs>
  <path id="路径_145" data-name="路径 145" class="cls-1" d="M4.9,145.1H6.069v-3.431H4.9Zm2.795,0H8.864V140.7H7.7Zm2.8-5.388V145.1h1.167v-5.388ZM2.1,145.1H3.267v-4.653H2.1Zm10.627-8.571H1.273A1.3,1.3,0,0,0,0,137.867v8A1.3,1.3,0,0,0,1.273,147.2H4.455v1.334H9.545V147.2h3.182a1.3,1.3,0,0,0,1.267-1.333l.006-8A1.3,1.3,0,0,0,12.727,136.533Zm0,9.333H1.273v-8H12.727Z" transform="translate(0 -136.533)"/>
</svg>
