<svg xmlns="http://www.w3.org/2000/svg" width="18" height="18" viewBox="0 0 18 18">
  <defs>
    <style>
      .cls-1 {
        fill: #5a5d74;
        opacity: 0;
      }

      .cls-2 {
        fill: #fff;
      }
    </style>
  </defs>
  <g id="组_1146" data-name="组 1146" transform="translate(-8029 -387)">
    <rect id="矩形_845" data-name="矩形 845" class="cls-1" width="18" height="18" transform="translate(8029 387)"/>
    <path id="路径_414" data-name="路径 414" class="cls-2" d="M130.54,139.651a1.112,1.112,0,0,1-1.1,1.124h-7.9a1.112,1.112,0,0,1-1.1-1.124v-9.683h10.1Zm-7.9-11.7a.225.225,0,0,1,.225-.231h5.273a.225.225,0,0,1,.225.231v.677h-5.723Zm11.194.677h-4.163v-.677a1.556,1.556,0,0,0-1.533-1.571h-5.273a1.556,1.556,0,0,0-1.533,1.571v.677h-4.177a.678.678,0,0,0,0,1.355h1.969v9.668a2.449,2.449,0,0,0,2.419,2.479h7.9a2.449,2.449,0,0,0,2.419-2.479v-9.683h1.969a.668.668,0,0,0,.661-.677A.656.656,0,0,0,133.831,128.628Zm-8.339,10.115a.669.669,0,0,0,.661-.677V133.11a.661.661,0,1,0-1.322,0v4.956a.669.669,0,0,0,.661.677m-3.08,0a.669.669,0,0,0,.661-.677V133.11a.661.661,0,1,0-1.322,0v4.956a.687.687,0,0,0,.661.677m6.159,0a.669.669,0,0,0,.661-.677V133.11a.661.661,0,1,0-1.322,0v4.956a.669.669,0,0,0,.661.677" transform="translate(7912.508 261.745)"/>
  </g>
</svg>
