<svg xmlns="http://www.w3.org/2000/svg" width="18" height="18" viewBox="0 0 18 18">
  <defs>
    <style>
      .cls-1, .cls-2 {
        fill: #09f;
      }

      .cls-1 {
        opacity: 0;
      }
    </style>
  </defs>
  <g id="组_2933" data-name="组 2933" transform="translate(-479 -514)">
    <rect id="矩形_2618" data-name="矩形 2618" class="cls-1" width="18" height="18" transform="translate(479 514)"/>
    <g id="组_2778" data-name="组 2778" transform="translate(480.286 515.285)">
      <path id="路径_6706" data-name="路径 6706" class="cls-2" d="M6008.866-2327.255a1.1,1.1,0,0,1-.779-.324l-2.883-2.883a.334.334,0,0,1-.072-.361.329.329,0,0,1,.305-.2H6008V-2339h1.654v7.973h2.642a.329.329,0,0,1,.305.2.334.334,0,0,1-.07.361l-2.885,2.883A1.105,1.105,0,0,1,6008.866-2327.255Z" transform="translate(-6001.113 2339)"/>
      <path id="路径_6707" data-name="路径 6707" class="cls-2" d="M6014.328-2323.572H6001.1a1.1,1.1,0,0,1-1.1-1.1V-2337.9a1.1,1.1,0,0,1,1.1-1.1h3.3v1.653h-2.754v12.123h12.123v-12.123h-2.644V-2339h3.2a1.1,1.1,0,0,1,1.1,1.1v13.225A1.1,1.1,0,0,1,6014.328-2323.572Z" transform="translate(-6000.001 2339.001)"/>
    </g>
  </g>
</svg>
