<svg width="28" height="28" viewBox="0 0 28 28" fill="none" xmlns="http://www.w3.org/2000/svg">
  <path d="M15.582 17.3152L21.3304 11.5542C21.4603 11.424 21.6146 11.3207 21.7844 11.2502C21.9542 11.1796 22.1363 11.1432 22.3201 11.143C22.504 11.1428 22.6862 11.1788 22.8561 11.249C23.0261 11.3192 23.1806 11.4222 23.3107 11.5521C23.4409 11.682 23.5442 11.8362 23.6148 12.0061C23.6853 12.1759 23.7217 12.3579 23.7219 12.5418C23.7221 12.7257 23.6861 12.9078 23.6159 13.0778C23.5457 13.2478 23.4427 13.4022 23.3128 13.5324L15.3944 21.4662C15.1347 21.7267 14.7829 21.8744 14.4151 21.8776C14.0473 21.8807 13.693 21.739 13.4288 21.483L5.24724 13.5492C4.98398 13.29 4.83384 12.9373 4.82952 12.5679C4.8252 12.1985 4.96707 11.8424 5.22419 11.5771C5.48132 11.3119 5.83287 11.159 6.20222 11.1518C6.57158 11.1446 6.9288 11.2837 7.19604 11.5388L12.782 16.9554V1.4C12.782 1.0287 12.9295 0.672601 13.1921 0.410051C13.4546 0.1475 13.8107 0 14.182 0C14.5533 0 14.9094 0.1475 15.172 0.410051C15.4345 0.672601 15.582 1.0287 15.582 1.4V17.3152ZM2.76784 25.172H25.2322V18.214C25.2285 17.8434 25.3718 17.4865 25.6309 17.2214C25.8899 16.9563 26.2435 16.8048 26.614 16.8C26.7979 16.8018 26.9796 16.8399 27.1487 16.9119C27.3179 16.984 27.4712 17.0886 27.5999 17.2199C27.7286 17.3512 27.8302 17.5066 27.8988 17.6772C27.9675 17.8477 28.0019 18.0301 28 18.214V26.586C28.0038 26.9571 27.86 27.3144 27.6004 27.5796C27.3408 27.8447 26.9865 27.9959 26.6154 28H1.38604C1.20219 27.9982 1.02049 27.9601 0.851338 27.8881C0.682181 27.816 0.528874 27.7114 0.400171 27.5801C0.271467 27.4488 0.169887 27.2934 0.101233 27.1228C0.0325779 26.9523 -0.0018073 26.7699 4.0421e-05 26.586V18.214C-0.0036927 17.8429 0.140048 17.4856 0.399675 17.2204C0.659303 16.9553 1.01357 16.8041 1.38464 16.8C1.75546 16.8044 2.10937 16.9558 2.3687 17.2209C2.62802 17.486 2.77157 17.8432 2.76784 18.214V25.172Z" fill="white"/>
</svg>
