<svg xmlns="http://www.w3.org/2000/svg" width="16" height="16" viewBox="0 0 16 16">
  <defs>
    <style>
      .cls-1 {
        fill: #fff;
        opacity: 0;
      }

      .cls-2 {
        fill: #ced0d8;
      }
    </style>
  </defs>
  <g id="组_336" data-name="组 336" transform="translate(-6027 -1593)">
    <rect id="矩形_789" data-name="矩形 789" class="cls-1" width="16" height="16" transform="translate(6027 1593)"/>
    <g id="组_335" data-name="组 335" transform="translate(6027.727 1593.727)">
      <path id="路径_386" data-name="路径 386" class="cls-2" d="M133.361,111.757l-3.428,2.905,3.428,3.007Z" transform="translate(-129.933 -111.757)"/>
      <path id="路径_387" data-name="路径 387" class="cls-2" d="M141.76,225.659h-8.013v1.785l2.112.016v0h5.9a1.543,1.543,0,0,1,1.144.523,1.879,1.879,0,0,1,0,2.5,1.543,1.543,0,0,1-1.144.523h-.473v0H135.2a3.439,3.439,0,0,0-3.264,3.573h0a3.439,3.439,0,0,0,3.264,3.573h6.023l2,.015h0a.909.909,0,0,0,.05-1.8v0l-3.626-.007H135.2a1.543,1.543,0,0,1-1.144-.523,1.879,1.879,0,0,1,0-2.5,1.543,1.543,0,0,1,1.144-.523h.473v0h6.089a3.439,3.439,0,0,0,3.264-3.573h0a3.439,3.439,0,0,0-3.264-3.573Z" transform="translate(-130.479 -223.618)"/>
    </g>
  </g>
</svg>
