<svg xmlns="http://www.w3.org/2000/svg" width="48" height="48" viewBox="0 0 48 48">
  <defs>
    <style>
      .cls-1 {
        fill: #f47a88;
      }

      .cls-2 {
        fill: #fff;
      }
    </style>
  </defs>
  <g id="组_1062" data-name="组 1062" transform="translate(-1320 -1324)">
    <rect id="矩形_807" data-name="矩形 807" class="cls-1" width="48" height="48" transform="translate(1320 1324)"/>
    <path id="路径_392" data-name="路径 392" class="cls-2" d="M151.5,184.752l-5.441-9.832a1.111,1.111,0,0,0-.969-.584H134.214a1.111,1.111,0,0,0-.969.584l-5.441,9.832a1.212,1.212,0,0,0,0,1.168l5.441,9.832a1.111,1.111,0,0,0,.969.584h10.881a1.111,1.111,0,0,0,.969-.584l5.441-9.832A1.212,1.212,0,0,0,151.5,184.752ZM144.449,194H134.86l-4.794-8.665,4.794-8.665h9.589l4.794,8.665Zm-9.486-7.672c0,.813-.6,1.5-1.875,1.5a2.941,2.941,0,0,1-1.317-.295l.214-.906a2.593,2.593,0,0,0,1.165.3c.482,0,.738-.208.738-.525s-.221-.475-.779-.684c-.772-.281-1.275-.727-1.275-1.431,0-.827.662-1.46,1.758-1.46a2.751,2.751,0,0,1,1.186.245l-.235.885a2.129,2.129,0,0,0-.972-.23c-.455,0-.676.216-.676.468,0,.309.262.445.862.684C134.577,185.2,134.963,185.645,134.963,186.329Zm.36-3.417h3.571v.92h-1.269v3.928h-1.055v-3.928h-1.248Zm5.98-.079a2.307,2.307,0,0,0-2.261,2.54,2.223,2.223,0,0,0,2.185,2.467,2.271,2.271,0,0,0,2.282-2.554A2.222,2.222,0,0,0,141.3,182.833Zm-.021,4.136c-.7,0-1.13-.669-1.13-1.618s.414-1.648,1.124-1.648,1.124.748,1.124,1.619C142.4,186.264,141.992,186.969,141.282,186.969Zm2.919.791h1.041v-1.734a2.448,2.448,0,0,0,.359.022,2.1,2.1,0,0,0,1.509-.511,1.581,1.581,0,0,0,.428-1.151,1.441,1.441,0,0,0-.5-1.122,2.159,2.159,0,0,0-1.42-.389,8.258,8.258,0,0,0-1.42.1v4.783Zm1.041-4.014a1.732,1.732,0,0,1,.434-.043c.524,0,.82.267.82.712,0,.5-.345.791-.9.791a1.562,1.562,0,0,1-.352-.028v-1.432Z" transform="translate(1204.346 1162.664)"/>
  </g>
</svg>
