<svg xmlns="http://www.w3.org/2000/svg" width="22" height="22" viewBox="0 0 22 22">
  <defs>
    <style>
      .cls-1, .cls-2 {
        fill: #ced0d8;
      }

      .cls-1 {
        opacity: 0;
      }
    </style>
  </defs>
  <g id="组_1629" data-name="组 1629" transform="translate(-6185 -2062)">
    <rect id="矩形_775" data-name="矩形 775" class="cls-1" width="22" height="22" transform="translate(6185 2062)"/>
    <path id="路径_359" data-name="路径 359" class="cls-2" d="M721.516,440.66v-.135L713.005,432h-.135l-11.426,11.31a6.426,6.426,0,0,0-.675,8.39,5.83,5.83,0,0,0,4.458,2.3h11.888v-1.353h-7.7c.136-.135.406-.271.541-.406Zm-8.511-5.548,5.4,5.413v.135l-8.049,8.063-5.539-5.548,8.049-8.063Zm-10.48,15.1a3.927,3.927,0,0,1,.27-5.142l5.539,5.548a4.473,4.473,0,0,1-2.7,1.218,3.781,3.781,0,0,1-3.107-1.624Zm0,0" transform="translate(5485.484 1630)"/>
  </g>
</svg>
