<svg xmlns="http://www.w3.org/2000/svg" width="28" height="28" viewBox="0 0 28 28">
  <defs>
    <style>
      .cls-1 {
        opacity: 0;
      }

      .cls-2 {
        fill: #fff;
      }
    </style>
  </defs>
  <g id="组_318" data-name="组 318" transform="translate(-6182 -1420)">
    <rect id="矩形_197" data-name="矩形 197" class="cls-1" width="28" height="28" rx="4" transform="translate(6182 1420)"/>
    <g id="组_217" data-name="组 217" transform="translate(6053.965 1365)">
      <path id="路径_317" data-name="路径 317" class="cls-2" d="M145.164,306.785l-2.43-2.339a.482.482,0,0,0-.68,0,.441.441,0,0,0,0,.655l1.6,1.544h-5.665a.468.468,0,1,0,0,.936h5.665l-1.6,1.544a.441.441,0,0,0,0,.655.482.482,0,0,0,.68,0l2.43-2.386a.046.046,0,0,1,.049-.047.376.376,0,0,0-.049-.561Z" transform="translate(-2.438 -238.113)"/>
      <path id="路径_318" data-name="路径 318" class="cls-2" d="M135.6,65.231a.522.522,0,0,0,.565-.538V63.615a.522.522,0,0,1,.565-.538h10.611a.522.522,0,0,1,.565.538V74.385a.522.522,0,0,1-.565.538H136.729a.522.522,0,0,1-.565-.538V73.308a.565.565,0,0,0-1.13,0v1.077A1.627,1.627,0,0,0,136.729,76h10.611a1.627,1.627,0,0,0,1.694-1.615V63.615A1.627,1.627,0,0,0,147.341,62H136.729a1.627,1.627,0,0,0-1.694,1.615v1.077A.522.522,0,0,0,135.6,65.231Z" transform="translate(0)"/>
    </g>
  </g>
</svg>
