<svg xmlns="http://www.w3.org/2000/svg" width="20" height="20" viewBox="0 0 20 20">
  <defs>
    <style>
      .cls-1 {
        fill: #fff;
        opacity: 0;
      }

      .cls-2 {
        fill: #ced0d8;
      }
    </style>
  </defs>
  <g id="组_132" data-name="组 132" transform="translate(-1530 -91)">
    <rect id="矩形_102" data-name="矩形 102" class="cls-1" width="20" height="20" transform="translate(1530 91)"/>
    <path id="路径_116" data-name="路径 116" class="cls-2" d="M10,12C4.293,12,0,7.983,0,6S4.293,0,10,0c5.9,0,10,4.017,10,6C20,7.93,15.854,12,10,12ZM10,1.1A4.854,4.854,0,0,0,5.171,6a4.83,4.83,0,1,0,9.659,0A4.854,4.854,0,0,0,10,1.1Zm0,7.878A2.914,2.914,0,0,1,7.22,6,2.881,2.881,0,0,1,10,3.026,2.881,2.881,0,0,1,12.78,6,2.881,2.881,0,0,1,10,8.974ZM11.073,3.6A1.357,1.357,0,1,0,12.39,4.957,1.346,1.346,0,0,0,11.073,3.6Z" transform="translate(1530 95)"/>
  </g>
</svg>
