<svg xmlns="http://www.w3.org/2000/svg" width="16" height="16" viewBox="0 0 16 16">
  <defs>
    <style>
      .cls-1, .cls-2 {
        fill: #f47a88;
      }

      .cls-1 {
        opacity: 0;
      }
    </style>
  </defs>
  <g id="组_1118" data-name="组 1118" transform="translate(-1148 -324)">
    <rect id="矩形_995" data-name="矩形 995" class="cls-1" width="16" height="16" transform="translate(1148 324)"/>
    <path id="路径_549" data-name="路径 549" class="cls-2" d="M2.343,13.657A8,8,0,1,1,8.01,16H7.99A7.977,7.977,0,0,1,2.343,13.657ZM3.38,3.38a6.535,6.535,0,1,0,9.241,9.241,6.535,6.535,0,0,0-4.6-11.155H8A6.493,6.493,0,0,0,3.38,3.38Zm7.01,8.035a2.838,2.838,0,0,0-4.783,0,.674.674,0,0,1-1.134-.729,4.183,4.183,0,0,1,7.051,0,.676.676,0,0,1-.2.931.661.661,0,0,1-.362.107A.68.68,0,0,1,10.39,11.415ZM9.736,5.772a1.158,1.158,0,1,1,1.157,1.157A1.159,1.159,0,0,1,9.736,5.772Zm-5.788,0A1.157,1.157,0,1,1,5.106,6.929,1.159,1.159,0,0,1,3.948,5.772Z" transform="translate(1148 324)"/>
  </g>
</svg>
