<svg xmlns="http://www.w3.org/2000/svg" width="14" height="14" viewBox="0 0 14 14">
  <defs>
    <style>
      .cls-1 {
        fill: #fff;
        opacity: 0;
      }

      .cls-2 {
        fill: #ced0d8;
      }
    </style>
  </defs>
  <g id="组_1173" data-name="组 1173" transform="translate(-1641 -1508)">
    <rect id="矩形_873" data-name="矩形 873" class="cls-1" width="14" height="14" transform="translate(1641 1508)"/>
    <path id="路径_463" data-name="路径 463" class="cls-2" d="M29.169,110.513H17.283a1.1,1.1,0,0,1-1.057-1.139V99.4a1.1,1.1,0,0,1,1.057-1.139h5.051a.656.656,0,0,1,.582.364l1.669,3.265h4.328a1.553,1.553,0,0,1,1.313,1.36v6.119A1.1,1.1,0,0,1,29.169,110.513Zm-11.338-1.082H28.62a.6.6,0,0,0,.59-.611v-5.1a.71.71,0,0,0-.7-.723H24.364a.7.7,0,0,1-.626-.393l-1.632-3.026a.586.586,0,0,0-.52-.324H17.831a.6.6,0,0,0-.59.611v8.959A.6.6,0,0,0,17.831,109.431ZM28.6,102.474a.679.679,0,0,1-.668-.695v-1.061a.506.506,0,0,0-.469-.517H23.3a.682.682,0,0,1-.67-.693c.007-.37.3-.437.655-.437H28c.6,0,1.093.735,1.093,1.36v1.36C29.092,102.165,28.952,102.466,28.6,102.474Z" transform="translate(1624.773 1410.612)"/>
  </g>
</svg>
