<svg xmlns="http://www.w3.org/2000/svg" width="16" height="16" viewBox="0 0 16 16">
  <defs>
    <style>
      .cls-1, .cls-2 {
        fill: #09f;
      }

      .cls-1 {
        opacity: 0;
      }
    </style>
  </defs>
  <g id="组_1777" data-name="组 1777" transform="translate(-24 -426)">
    <rect id="矩形_88" data-name="矩形 88" class="cls-1" width="16" height="16" transform="translate(24 426)"/>
    <path id="路径_78" data-name="路径 78" class="cls-2" d="M84.255,67.261a7.574,7.574,0,0,0-1.728-2.531,7.963,7.963,0,0,0-2.552-1.706A7.526,7.526,0,0,0,76.9,62.4a8.119,8.119,0,0,0-3.1.633,8.228,8.228,0,0,0-2.552,1.706,7.936,7.936,0,0,0-1.728,2.531,8.124,8.124,0,0,0-.624,3.091,7.931,7.931,0,0,0,.871,3.6,7.731,7.731,0,0,0,2.328,2.73.5.5,0,0,0,.6-.81,6.892,6.892,0,0,1-2.8-5.557,7,7,0,0,1,14,0,6.9,6.9,0,0,1-2.8,5.557.5.5,0,0,0-.1.705.516.516,0,0,0,.4.2.42.42,0,0,0,.3-.1,8.11,8.11,0,0,0,2.328-2.73,7.817,7.817,0,0,0,.871-3.6A8.1,8.1,0,0,0,84.255,67.261ZM81.9,70.24a4.857,4.857,0,0,0-1.473-3.5,5.019,5.019,0,0,0-7.057,0,4.865,4.865,0,0,0-1.471,3.5,4.971,4.971,0,0,0,.425,1.977,5.287,5.287,0,0,0,1.128,1.6.538.538,0,0,0,.705,0,.512.512,0,0,0,0-.705,3.883,3.883,0,0,1-1.224-2.851,4,4,0,0,1,8,0,3.878,3.878,0,0,1-1.224,2.851.488.488,0,0,0,0,.705.5.5,0,0,0,.376.152.491.491,0,0,0,.352-.152,5.282,5.282,0,0,0,1.128-1.6A7.191,7.191,0,0,0,81.9,70.24Zm-4.073,3.3a1.056,1.056,0,0,0-1.905,0L73.949,76.79a1.106,1.106,0,0,0-.072,1.105,1.063,1.063,0,0,0,.976.5h4a1.039,1.039,0,0,0,.976-.5,1.106,1.106,0,0,0-.072-1.105C79.773,76.821,77.83,73.538,77.83,73.538Zm1.048,3.884H74.8c0-.024.023-.049.049-.1l1.976-3.251c.024-.049.072-.1.1-.1s.049.049.1.1l1.976,3.251c.023.024.023.072.049.1Zm0,0" transform="translate(-44.9 363.6)"/>
  </g>
</svg>
