<svg id="组_801" data-name="组 801" xmlns="http://www.w3.org/2000/svg" width="16" height="16" viewBox="0 0 16 16">
  <defs>
    <style>
      .cls-1 {
        fill: #fff;
        opacity: 0;
      }

      .cls-2 {
        fill: #f0f1f5;
      }
    </style>
  </defs>
  <rect id="矩形_921" data-name="矩形 921" class="cls-1" width="16" height="16"/>
  <g id="组_1350" data-name="组 1350" transform="translate(-63 -63)">
    <path id="路径_755" data-name="路径 755" class="cls-2" d="M1253,291a7,7,0,1,1,7,7A6.988,6.988,0,0,1,1253,291Zm1,0a6,6,0,1,0,6-6A5.986,5.986,0,0,0,1254,291Zm9.123,3.9a3.123,3.123,0,0,0-6.246,0h-.78a3.872,3.872,0,0,1,2.372-3.562,2.732,2.732,0,1,1,3.063,0,3.872,3.872,0,0,1,2.372,3.562Zm-5.075-5.807a1.952,1.952,0,1,0,1.952-1.936A1.943,1.943,0,0,0,1258.048,289.1Z" transform="translate(-1189 -220)"/>
  </g>
</svg>
