<svg id="组_801" data-name="组 801" xmlns="http://www.w3.org/2000/svg" width="16" height="16" viewBox="0 0 16 16">
  <defs>
    <style>
      .cls-1 {
        fill: #fff;
        opacity: 0;
      }

      .cls-2 {
        fill: #f0f1f5;
        opacity: 0.8;
      }
    </style>
  </defs>
  <rect id="矩形_921" data-name="矩形 921" class="cls-1" width="16" height="16"/>
  <path id="联合_3" data-name="联合 3" class="cls-2" d="M2001.025,14A1.028,1.028,0,0,1,2000,12.971V6.943a1.028,1.028,0,0,1,1.025-1.029h.308c0-.048,0-.094,0-.143a6.332,6.332,0,0,1,1.377-4.022,4.937,4.937,0,0,1,1.55-1.27,4.23,4.23,0,0,1,3.912,0,4.923,4.923,0,0,1,1.55,1.27,5.878,5.878,0,0,1,.889,1.5.827.827,0,1,1-1.525.639,4.211,4.211,0,0,0-.638-1.08,2.745,2.745,0,0,0-4.461,0,4.665,4.665,0,0,0-1,2.966c0,.048,0,.094,0,.143h7.99A1.027,1.027,0,0,1,2012,6.945v6.026A1.028,1.028,0,0,1,2010.976,14Zm.628-5.926v3.77a.5.5,0,0,0,.5.5h7.7a.5.5,0,0,0,.5-.5V8.074a.5.5,0,0,0-.5-.5h-7.7A.5.5,0,0,0,2001.652,8.074Zm3.441,2.561a.913.913,0,0,1,.454-.79v-.68a.2.2,0,0,1,.2-.2h.509a.2.2,0,0,1,.2.2v.68a.91.91,0,1,1-1.36.79Z" transform="translate(-1998 1)"/>
</svg>
