<svg xmlns="http://www.w3.org/2000/svg" width="20" height="20" viewBox="0 0 20 20">
  <defs>
    <style>
      .cls-1 {
        fill: #09f;
      }
    </style>
  </defs>
  <path id="路径_123" data-name="路径 123" class="cls-1" d="M35.674,34.57a9.561,9.561,0,0,0-8.009-2.588,9.721,9.721,0,0,0-6.987,4.781l-.331-1.64a.8.8,0,0,0-.982-.581.826.826,0,0,0-.566,1.008l.846,4.2a.8.8,0,0,0,.7.6.757.757,0,0,0,.375,0l4.043-1.407a.818.818,0,0,0,.562-1,.792.792,0,0,0-.972-.577l-2.514.875-.066-.077a8.175,8.175,0,1,1,7.262,12.046,8.032,8.032,0,0,1-6.022-2.749q-.142-.162-.277-.333a.794.794,0,0,0-1.078-.161.836.836,0,0,0-.349.567.85.85,0,0,0,.171.648q.16.2.33.4A9.574,9.574,0,0,0,31.344,51.6a9.863,9.863,0,0,0,7.111-7.187A10.175,10.175,0,0,0,35.674,34.57Z" transform="translate(-18.772 -31.883)"/>
</svg>
