<svg xmlns="http://www.w3.org/2000/svg" width="14" height="14" viewBox="0 0 14 14">
  <defs>
    <style>
      .cls-1, .cls-2 {
        fill: #ced0d8;
      }

      .cls-1 {
        opacity: 0;
      }
    </style>
  </defs>
  <g id="组_1648" data-name="组 1648" transform="translate(-6565 -1467)">
    <rect id="矩形_120" data-name="矩形 120" class="cls-1" width="14" height="14" transform="translate(6565 1467)"/>
    <path id="路径_321" data-name="路径 321" class="cls-2" d="M77.428,181.387h-8.75a.841.841,0,1,0,0,1.68h8.75a.841.841,0,1,0,0-1.68Zm-12.25,0a.841.841,0,1,0,.875.84A.858.858,0,0,0,65.178,181.387Zm0-5.16a.841.841,0,1,0,.875.84A.858.858,0,0,0,65.178,176.227Zm3.5,1.68h8.75a.841.841,0,1,0,0-1.68h-8.75a.841.841,0,1,0,0,1.68Zm8.75,8.64h-8.75a.841.841,0,1,0,0,1.68h8.75a.841.841,0,1,0,0-1.68Zm-12.25,0a.841.841,0,1,0,.875.84A.858.858,0,0,0,65.178,186.547Z" transform="translate(6500.697 1291.773)"/>
  </g>
</svg>
