<svg xmlns="http://www.w3.org/2000/svg" width="14" height="14" viewBox="0 0 14 14">
  <defs>
    <style>
      .cls-1 {
        fill: #fff;
        opacity: 0;
      }

      .cls-2 {
        fill: #09f;
      }
    </style>
  </defs>
  <g id="组_1749" data-name="组 1749" transform="translate(-1052 -5786)">
    <rect id="矩形_120" data-name="矩形 120" class="cls-1" width="14" height="14" transform="translate(1052 5786)"/>
    <path id="路径_150" data-name="路径 150" class="cls-2" d="M91.333,0a5.867,5.867,0,0,0-6,5.658c0,5.017,5.52,8.108,5.76,8.225a.242.242,0,0,0,.24.117.369.369,0,0,0,.24-.058c.24-.117,5.76-3.267,5.76-8.225A5.877,5.877,0,0,0,91.333,0Zm0,12.833c-.96-.583-4.8-3.267-4.8-7.058a4.8,4.8,0,0,1,9.6,0C96.133,9.567,92.293,12.25,91.333,12.833Zm0-9.917a2.918,2.918,0,1,0,3,2.917A2.93,2.93,0,0,0,91.333,2.917Zm0,4.667a1.751,1.751,0,1,1,1.8-1.75A1.744,1.744,0,0,1,91.333,7.583Z" transform="translate(967.667 5786)"/>
  </g>
</svg>
