<svg xmlns="http://www.w3.org/2000/svg" width="16" height="16" viewBox="0 0 16 16">
  <defs>
    <style>
      .cls-1, .cls-2 {
        fill: #ced0d8;
      }

      .cls-1 {
        opacity: 0;
      }
    </style>
  </defs>
  <g id="组_1845" data-name="组 1845" transform="translate(-950 -1791)">
    <rect id="矩形_1054" data-name="矩形 1054" class="cls-1" width="16" height="16" transform="translate(950 1791)"/>
    <g id="组_1577" data-name="组 1577" transform="translate(854.854 1705.667)">
      <path id="路径_1692" data-name="路径 1692" class="cls-2" d="M110.186,170.667H96.107a.963.963,0,0,0-.96.96v12.48a.963.963,0,0,0,.96.96h14.08a.963.963,0,0,0,.96-.96v-12.48A.958.958,0,0,0,110.186,170.667Zm-.32,13.12H96.427v-11.84h13.44Z" transform="translate(0 -83.733)"/>
      <path id="路径_1693" data-name="路径 1693" class="cls-2" d="M299.917,96.853H292.2a.616.616,0,0,1-.616-.616V96.2a.616.616,0,0,1,.616-.616h7.72a.616.616,0,0,1,.616.616v.04A.616.616,0,0,1,299.917,96.853Zm-.024-2.88h-4.16a.64.64,0,1,1,0-1.28h4.16a.64.64,0,1,1,0,1.28Zm-.48-4.48a.642.642,0,0,1-.64-.64v-2.88a.64.64,0,0,1,1.28,0v2.88A.637.637,0,0,1,299.413,89.493Zm-7.36,0a.642.642,0,0,1-.64-.64v-2.88a.64.64,0,1,1,1.28,0v2.88A.637.637,0,0,1,292.053,89.493Z" transform="translate(-192.587)"/>
    </g>
  </g>
</svg>
