<svg xmlns="http://www.w3.org/2000/svg" width="14" height="14" viewBox="0 0 14 14">
  <defs>
    <style>
      .cls-1, .cls-2 {
        fill: #ced0d8;
      }

      .cls-1 {
        opacity: 0;
      }
    </style>
  </defs>
  <g id="组_1123" data-name="组 1123" transform="translate(-1586 -2688)">
    <rect id="矩形_997" data-name="矩形 997" class="cls-1" width="14" height="14" transform="translate(1586 2688)"/>
    <path id="路径_313" data-name="路径 313" class="cls-2" d="M130.392,130.287l-3.818-1.088V117.77l3.818,1.088Zm-8.909,0-3.818-1.088V117.77l3.818,1.088Zm9.313-11.97,0,0-4.455-1.273,0,0a.365.365,0,0,0-.085-.016.4.4,0,0,0-.086.016v0l-4.367,1.248-4.367-1.248,0,0a.364.364,0,0,0-.086-.016.318.318,0,0,0-.318.318v12.091a.315.315,0,0,0,.232.3l0,0,4.455,1.273,0,0a.365.365,0,0,0,.086.016.391.391,0,0,0,.086-.016l0,0,4.368-1.247,4.367,1.247v0a.37.37,0,0,0,.086.016.319.319,0,0,0,.318-.318V118.62A.315.315,0,0,0,130.8,118.317Z" transform="translate(1468.971 2570.971)"/>
  </g>
</svg>
