<svg xmlns="http://www.w3.org/2000/svg" width="16" height="16" viewBox="0 0 16 16">
  <defs>
    <style>
      .cls-1, .cls-2 {
        fill: #09f;
      }

      .cls-1 {
        opacity: 0;
      }
    </style>
  </defs>
  <g id="组_1772" data-name="组 1772" transform="translate(-24 -186)">
    <rect id="矩形_82" data-name="矩形 82" class="cls-1" width="16" height="16" transform="translate(24 186)"/>
    <path id="路径_68" data-name="路径 68" class="cls-2" d="M14.17,2.407A.509.509,0,0,0,13.9,1.9L11.023.509a.674.674,0,0,0-.193-.092.447.447,0,0,0-.214-.032.7.7,0,0,0-.31.066L7.345,2.26l-.031-.014L3.954.967A.449.449,0,0,0,3.631.889.47.47,0,0,0,3.361,1L.463,2.421a.511.511,0,0,0-.105.07.5.5,0,0,0-.186.389v11a.5.5,0,0,0,.159.365l.011.011.016.014a.475.475,0,0,0,.165.089h0l.019.005a.57.57,0,0,0,.13.016.5.5,0,0,0,.333-.128l2.778-1.366,3.357.5a.469.469,0,0,0,.216-.016.671.671,0,0,0,.223-.061L10.5,11.9l2.912,1.4a.489.489,0,0,0,.11.052.465.465,0,0,0,.534-.155.555.555,0,0,0,.117-.4V2.407Zm-1,9.641-2.315-1.117a.437.437,0,0,0-.247-.041.719.719,0,0,0-.346.064L7.253,12.406,7.211,12.4,3.7,11.877a.466.466,0,0,0-.443.172L1.172,13.074v-9.9L3.526,2.015h0L7.012,3.341a.472.472,0,0,0,.279.018.685.685,0,0,0,.23-.062l3.049-1.862,2.6,1.254v9.359Zm-9.5-8.667a.5.5,0,0,0-.5.5v6.5a.5.5,0,1,0,1,0v-6.5A.5.5,0,0,0,3.672,3.381Zm3.5,1a.5.5,0,0,0-.5.5v5.5a.5.5,0,1,0,1,0v-5.5A.5.5,0,0,0,7.171,4.381Zm3-1v6a.5.5,0,1,0,1,0v-6a.5.5,0,1,0-1,0Z" transform="translate(24.828 186.617)"/>
  </g>
</svg>
