<svg xmlns="http://www.w3.org/2000/svg" width="14" height="14" viewBox="0 0 14 14">
  <defs>
    <style>
      .cls-1, .cls-2 {
        fill: #09f;
      }

      .cls-1 {
        opacity: 0;
      }
    </style>
  </defs>
  <g id="组_1708" data-name="组 1708" transform="translate(-68 -637)">
    <rect id="矩形_922" data-name="矩形 922" class="cls-1" width="14" height="14" transform="translate(68 637)"/>
    <path id="路径_551" data-name="路径 551" class="cls-2" d="M141.128,179.194H128.875A.845.845,0,0,0,128,180v8.762a.845.845,0,0,0,.875.809h3.5v.81a.845.845,0,0,0,.875.809h3.5a.845.845,0,0,0,.875-.809v-.81h3.5a.845.845,0,0,0,.875-.809V180a.8.8,0,0,0-.259-.578A.881.881,0,0,0,141.128,179.194Zm-.028,9.373H128.989V180.21h12.018Zm-5.227-6.07h-4.811a.405.405,0,1,1,0-.81h4.812a.405.405,0,1,1,0,.81Zm.875,2.152h-5.686a.405.405,0,1,1,0-.81h5.687a.405.405,0,1,1,0,.81Zm2.188,2.154h-7.874a.405.405,0,1,1,0-.81h7.875a.405.405,0,1,1,0,.81Zm0,0" transform="translate(-60 458.806)"/>
  </g>
</svg>
