<svg xmlns="http://www.w3.org/2000/svg" width="30" height="30" viewBox="0 0 30 30">
  <defs>
    <style>
      .cls-1 {
        fill: #5a5d74;
      }
    </style>
  </defs>
  <path id="路径_6698" data-name="路径 6698" class="cls-1" d="M4.647,4.031A14.341,14.341,0,0,1,16.66.15,14.581,14.581,0,0,1,27.141,7.322l.5-2.46A1.2,1.2,0,0,1,29.11,3.99,1.238,1.238,0,0,1,29.958,5.5l-1.27,6.3a1.2,1.2,0,0,1-1.052.9,1.136,1.136,0,0,1-.563,0l-6.064-2.11a1.227,1.227,0,0,1-.842-1.5,1.188,1.188,0,0,1,1.459-.865L25.4,9.543l.1-.116A12.232,12.232,0,0,0,14.6,2.5,12.349,12.349,0,0,0,2.437,15,12.349,12.349,0,0,0,14.6,27.5a12.049,12.049,0,0,0,9.032-4.124q.214-.243.415-.5a1.191,1.191,0,0,1,1.618-.242,1.254,1.254,0,0,1,.524.851,1.274,1.274,0,0,1-.256.972q-.24.3-.495.593a14.361,14.361,0,0,1-14.3,4.526A14.794,14.794,0,0,1,.474,18.793,15.262,15.262,0,0,1,4.647,4.031Z" transform="translate(0 0)"/>
</svg>
