<svg xmlns="http://www.w3.org/2000/svg" width="16" height="16" viewBox="0 0 16 16">
  <defs>
    <style>
      .cls-1, .cls-2 {
        fill: #fff;
      }

      .cls-1 {
        opacity: 0;
      }
    </style>
  </defs>
  <g id="组_2952" data-name="组 2952" transform="translate(-428 -1401)">
    <rect id="矩形_115" data-name="矩形 115" class="cls-1" width="16" height="16" transform="translate(428 1401)"/>
    <g id="组_140" data-name="组 140" transform="translate(428 1410.143)">
      <path id="路径_147" data-name="路径 147" class="cls-2" d="M267.379,486.607v.523a.291.291,0,0,0,.313.262h5.843a.29.29,0,0,0,.313-.262v-.523a.29.29,0,0,0-.313-.262h-5.843A.292.292,0,0,0,267.379,486.607Z" transform="translate(-267.379 -483.439)"/>
      <path id="路径_148" data-name="路径 148" class="cls-2" d="M553.379,341.159l-2.613-2.605a.449.449,0,0,1,.023-.69.6.6,0,0,1,.781.02l.022.022,2.938,2.93a.446.446,0,0,1,0,.647l-2.938,2.929a.6.6,0,0,1-.778.063.45.45,0,0,1-.071-.688l.022-.022Z" transform="translate(-547.812 -337.73)"/>
    </g>
    <path id="路径_365" data-name="路径 365" class="cls-2" d="M186.052,61.44H173.8a.763.763,0,0,0-.715.8v6.4a.764.764,0,0,0,.715.8h5.421v7.6a.382.382,0,0,0,.358.4h.7a.382.382,0,0,0,.358-.4v-7.6h5.421a.764.764,0,0,0,.715-.8v-6.4A.764.764,0,0,0,186.052,61.44Zm-.716,6.4H174.511v-4.8h10.824Zm-1.381-3.162h-8.045v1.58h8.046v-1.58Z" transform="translate(257.206 1339.56)"/>
  </g>
</svg>
