<svg xmlns="http://www.w3.org/2000/svg" width="14" height="14" viewBox="0 0 14 14">
  <defs>
    <style>
      .cls-1 {
        fill: #fff;
        opacity: 0;
      }

      .cls-2 {
        fill: #ced0d8;
      }
    </style>
  </defs>
  <g id="组_1745" data-name="组 1745" transform="translate(-60 -5822)">
    <rect id="矩形_115" data-name="矩形 115" class="cls-1" width="14" height="14" transform="translate(60 5822)"/>
    <g id="组_140" data-name="组 140" transform="translate(-6.661 5680.812)">
      <path id="路径_147" data-name="路径 147" class="cls-2" d="M267.379,486.574v.457a.254.254,0,0,0,.274.229h5.112a.254.254,0,0,0,.273-.229v-.457a.254.254,0,0,0-.273-.229h-5.112A.255.255,0,0,0,267.379,486.574Z" transform="translate(-200.718 -334.613)"/>
      <path id="路径_148" data-name="路径 148" class="cls-2" d="M553.033,340.73l-2.286-2.28a.393.393,0,0,1,.02-.6.529.529,0,0,1,.683.017l.02.02,2.571,2.564a.391.391,0,0,1,0,.566l-2.571,2.563a.528.528,0,0,1-.681.055.394.394,0,0,1-.062-.6l.019-.019Z" transform="translate(-481.502 -188.542)"/>
    </g>
    <path id="路径_365" data-name="路径 365" class="cls-2" d="M184.43,61.44H173.706a.668.668,0,0,0-.626.7v5.6a.668.668,0,0,0,.626.7h4.743v6.65a.335.335,0,0,0,.314.35h.61a.335.335,0,0,0,.314-.35V68.44h4.743a.668.668,0,0,0,.626-.7v-5.6A.668.668,0,0,0,184.43,61.44Zm-.626,5.6h-9.471v-4.2H183.8ZM182.6,64.273h-7.04v1.383h7.04V64.273Z" transform="translate(-111.08 5760.56)"/>
  </g>
</svg>
