<svg xmlns="http://www.w3.org/2000/svg" width="16" height="16" viewBox="0 0 16 16">
  <defs>
    <style>
      .cls-1, .cls-2 {
        fill: #ced0d8;
      }

      .cls-1 {
        opacity: 0;
      }
    </style>
  </defs>
  <g id="组_1675" data-name="组 1675" transform="translate(-8003 -387)">
    <rect id="矩形_845" data-name="矩形 845" class="cls-1" width="16" height="16" transform="translate(8003 387)"/>
    <path id="路径_413" data-name="路径 413" class="cls-2" d="M25.653,139.537l-2.9,3.216A1.014,1.014,0,0,1,22.1,143a.9.9,0,0,1-.639-.244l-2.944-3.2a1.127,1.127,0,0,1-.2-.6.839.839,0,0,1,.822-.814.966.966,0,0,1,.65.293l1.488,1.608v-8.228a.767.767,0,0,1,.822-.814.79.79,0,0,1,.835.814v8.226l1.491-1.613a.809.809,0,0,1,.583-.29.853.853,0,0,1,.884.814A.806.806,0,0,1,25.653,139.537Zm-10.218,2.638H10.768a.86.86,0,1,1,0-1.72h4.667a.86.86,0,1,1,0,1.72Zm0-4.316H10.768a.86.86,0,1,1,0-1.72h4.667a.86.86,0,1,1,0,1.72Zm0-4.314H10.768a.86.86,0,1,1,0-1.72h4.667a.86.86,0,1,1,0,1.72Z" transform="translate(7993.1 258)"/>
  </g>
</svg>
