<svg xmlns="http://www.w3.org/2000/svg" width="30" height="30" viewBox="0 0 30 30">
  <defs>
    <style>
      .cls-1 {
        fill: #5a5d74;
      }
    </style>
  </defs>
  <path id="路径_6700" data-name="路径 6700" class="cls-1" d="M25.353,4.031A14.341,14.341,0,0,0,13.34.15,14.581,14.581,0,0,0,2.859,7.322l-.5-2.46A1.2,1.2,0,0,0,.89,3.99,1.238,1.238,0,0,0,.041,5.5l1.27,6.3a1.2,1.2,0,0,0,1.052.9,1.136,1.136,0,0,0,.563,0l6.064-2.11a1.227,1.227,0,0,0,.842-1.5,1.188,1.188,0,0,0-1.459-.865L4.6,9.543l-.1-.116A12.232,12.232,0,0,1,15.4,2.5,12.349,12.349,0,0,1,27.563,15,12.349,12.349,0,0,1,15.4,27.5a12.049,12.049,0,0,1-9.032-4.124q-.214-.243-.415-.5a1.191,1.191,0,0,0-1.618-.242,1.254,1.254,0,0,0-.524.851,1.274,1.274,0,0,0,.256.972q.24.3.495.593a14.361,14.361,0,0,0,14.3,4.526,14.794,14.794,0,0,0,10.667-10.78A15.262,15.262,0,0,0,25.353,4.031Z" transform="translate(0 0)"/>
</svg>
