<svg xmlns="http://www.w3.org/2000/svg" width="14" height="14" viewBox="0 0 14 14">
  <defs>
    <style>
      .cls-1, .cls-2 {
        fill: #ced0d8;
      }

      .cls-1 {
        opacity: 0;
      }
    </style>
  </defs>
  <g id="组_1202" data-name="组 1202" transform="translate(-1155 -3587)">
    <rect id="矩形_116" data-name="矩形 116" class="cls-1" width="14" height="14" transform="translate(1155 3587)"/>
    <g id="组_141" data-name="组 141" transform="translate(1090.913 3441.223)">
      <g id="组_1201" data-name="组 1201">
        <path id="路径_147" data-name="路径 147" class="cls-2" d="M267.379,486.594v.5a.271.271,0,0,0,.288.249h7.481a.271.271,0,0,0,.288-.249v-.5a.271.271,0,0,0-.288-.249h-7.481A.272.272,0,0,0,267.379,486.594Z" transform="translate(-200.718 -334.069)"/>
        <path id="路径_148" data-name="路径 148" class="cls-2" d="M553.249,341.315l-2.49-2.724a.5.5,0,0,1,.022-.721.538.538,0,0,1,.744.02l.021.023,2.8,3.064a.5.5,0,0,1,0,.677l-2.8,3.063a.538.538,0,0,1-.742.065.5.5,0,0,1-.067-.719l.021-.023Z" transform="translate(-479.391 -188.542)"/>
      </g>
      <path id="路径_573" data-name="路径 573" class="cls-2" d="M77.5,64.2H64.9a.7.7,0,0,0-.7.7V77.5a.7.7,0,0,0,.7.7H77.5a.7.7,0,0,0,.7-.7V64.9A.7.7,0,0,0,77.5,64.2Zm-.3,13h-12v-12h12Z" transform="translate(-0.113 81.576)"/>
    </g>
  </g>
</svg>
