<svg xmlns="http://www.w3.org/2000/svg" width="16" height="16" viewBox="0 0 16 16">
  <defs>
    <style>
      .cls-1 {
        fill: #fff;
        opacity: 0;
      }

      .cls-2 {
        fill: #ced0d8;
      }
    </style>
  </defs>
  <g id="组_334" data-name="组 334" transform="translate(-5982 -1646)">
    <rect id="矩形_791" data-name="矩形 791" class="cls-1" width="16" height="16" transform="translate(5982 1646)"/>
    <g id="组_333" data-name="组 333" transform="translate(5985.636 1646)">
      <path id="路径_334" data-name="路径 334" class="cls-2" d="M12.467,5.673A4.6,4.6,0,0,1,8,9.455,4.6,4.6,0,0,1,3.533,5.673H.912a.946.946,0,0,1,0-1.891H3.533A4.6,4.6,0,0,1,8,0a4.6,4.6,0,0,1,4.467,3.782h2.621a.946.946,0,0,1,0,1.891ZM8,7.564a2.787,2.787,0,0,0,2.735-2.836A2.787,2.787,0,0,0,8,1.891,2.787,2.787,0,0,0,5.265,4.727,2.787,2.787,0,0,0,8,7.564Z" transform="translate(0 16) rotate(-90)"/>
    </g>
  </g>
</svg>
