<svg xmlns="http://www.w3.org/2000/svg" width="18" height="18" viewBox="0 0 18 18">
  <defs>
    <style>
      .cls-1 {
        fill: #fff;
      }
    </style>
  </defs>
  <path id="路径_512" data-name="路径 512" class="cls-1" d="M6009,18a8.975,8.975,0,1,1,.012,0Zm0-16.351a7.3,7.3,0,1,0,.023,0Zm-1.583,12.317a1.221,1.221,0,0,1-.431-.959,2.988,2.988,0,0,1,.033-.455,3.976,3.976,0,0,1,.1-.529l.538-1.877c.041-.183.082-.356.117-.514a2.211,2.211,0,0,0,.05-.446.67.67,0,0,0-.15-.5.864.864,0,0,0-.569-.14,1.237,1.237,0,0,0-.421.066c-.149.041-.273.083-.372.116l.141-.571c.348-.15.686-.264,1-.364a2.851,2.851,0,0,1,.9-.157,1.746,1.746,0,0,1,1.19.372,1.238,1.238,0,0,1,.412.959c0,.085-.009.225-.025.432a3.814,3.814,0,0,1-.106.569l-.53,1.868a3.672,3.672,0,0,0-.115.514,2.134,2.134,0,0,0-.059.438.613.613,0,0,0,.173.5.914.914,0,0,0,.579.14,1.837,1.837,0,0,0,.438-.066c.156-.05.281-.091.355-.124l-.148.578c-.421.165-.76.3-1.017.379a2.591,2.591,0,0,1-.885.133A1.769,1.769,0,0,1,6007.418,13.966Zm1.217-7.73a1.123,1.123,0,0,1,0-1.672,1.293,1.293,0,0,1,.9-.347,1.266,1.266,0,0,1,.894.347,1.126,1.126,0,0,1,0,1.672,1.3,1.3,0,0,1-.894.338A1.327,1.327,0,0,1,6008.635,6.236Z" transform="translate(-6000)"/>
</svg>
