<svg xmlns="http://www.w3.org/2000/svg" width="18" height="18" viewBox="0 0 18 18">
  <defs>
    <style>
      .cls-1 {
        fill: #fff;
      }
    </style>
  </defs>
  <path id="路径_513" data-name="路径 513" class="cls-1" d="M19.833,20.536a.912.912,0,0,1-.867.939h0c-.382-.072-.678-.235-.808-.882l-.525-6.053A1.383,1.383,0,0,1,19,13.394a1.337,1.337,0,0,1,1.3,1.17Zm-.865,1.731A1.137,1.137,0,1,0,20.1,23.4a1.137,1.137,0,0,0-1.137-1.137Zm9-3.3a9,9,0,1,1-9-9A9,9,0,0,1,27.968,18.968Zm-1.666,0A7.333,7.333,0,1,0,18.968,26.3,7.333,7.333,0,0,0,26.3,18.968Z" transform="translate(-9.968 -9.968)"/>
</svg>
