<svg xmlns="http://www.w3.org/2000/svg" width="18" height="18" viewBox="0 0 18 18">
  <defs>
    <style>
      .cls-1, .cls-2 {
        fill: #fff;
      }

      .cls-1 {
        opacity: 0;
      }
    </style>
  </defs>
  <g id="组_913" data-name="组 913" transform="translate(-68 -637)">
    <rect id="矩形_922" data-name="矩形 922" class="cls-1" width="18" height="18" transform="translate(68 637)"/>
    <path id="路径_500" data-name="路径 500" class="cls-2" d="M71.944,82a9,9,0,1,1,9-9A9.01,9.01,0,0,1,71.944,82Zm0-16.714A7.714,7.714,0,1,0,79.658,73,7.723,7.723,0,0,0,71.944,65.286Zm.021,12.964a5.753,5.753,0,0,1-4.558-2.222.643.643,0,0,1,1.012-.792,4.5,4.5,0,0,0,7.115-.03.643.643,0,0,1,1.02.783A5.748,5.748,0,0,1,71.965,78.25Zm-2.893-5.186a.964.964,0,0,1-.964-.964V70.814a.964.964,0,0,1,1.929,0V72.1A.965.965,0,0,1,69.072,73.064Zm5.786,0a.964.964,0,0,1-.964-.964V70.814a.964.964,0,1,1,1.929,0V72.1A.965.965,0,0,1,74.858,73.064Z" transform="translate(5.056 573)"/>
  </g>
</svg>
