<svg xmlns="http://www.w3.org/2000/svg" width="18" height="18" viewBox="0 0 18 18">
  <defs>
    <style>
      .cls-1 {
        fill: #fff;
      }
    </style>
  </defs>
  <path id="路径_420" data-name="路径 420" class="cls-1" d="M2.636,15.363A9,9,0,1,1,9.011,18H8.989A8.973,8.973,0,0,1,2.636,15.363ZM3.8,3.8A7.351,7.351,0,1,0,14.2,14.2,7.352,7.352,0,0,0,9.019,1.648H9A7.305,7.305,0,0,0,3.8,3.8Zm7.886,9.039a3.193,3.193,0,0,0-5.38,0,.758.758,0,0,1-1.276-.82,4.706,4.706,0,0,1,7.932,0,.76.76,0,0,1-.228,1.048.743.743,0,0,1-.407.121A.765.765,0,0,1,11.688,12.841Zm-.735-6.348a1.3,1.3,0,1,1,1.3,1.3A1.3,1.3,0,0,1,10.953,6.493Zm-6.511,0a1.3,1.3,0,1,1,1.3,1.3A1.3,1.3,0,0,1,4.442,6.493Z" transform="translate(0)"/>
</svg>
