<svg xmlns="http://www.w3.org/2000/svg" width="16" height="16" viewBox="0 0 16 16">
  <defs>
    <style>
      .cls-1, .cls-2 {
        fill: #54dec7;
      }

      .cls-1 {
        opacity: 0;
      }
    </style>
  </defs>
  <g id="组_1115" data-name="组 1115" transform="translate(-1148 -324)">
    <rect id="矩形_992" data-name="矩形 992" class="cls-1" width="16" height="16" transform="translate(1148 324)"/>
    <path id="路径_545" data-name="路径 545" class="cls-2" d="M8,16a8,8,0,1,1,5.657-2.343A7.972,7.972,0,0,1,8,16ZM8,1.465A6.535,6.535,0,0,0,3.379,12.621a6.535,6.535,0,0,0,9.242-9.242A6.492,6.492,0,0,0,8,1.465Zm-1.438,9.9a.733.733,0,0,1-.518-.215L3.663,8.765A.733.733,0,1,1,4.7,7.729L6.562,9.592,11.3,4.853a.733.733,0,0,1,1.036,1.036L7.08,11.147a.731.731,0,0,1-.518.215Z" transform="translate(1148 324)"/>
  </g>
</svg>
