<svg xmlns="http://www.w3.org/2000/svg" width="16" height="16" viewBox="0 0 16 16">
  <defs>
    <style>
      .cls-1, .cls-2 {
        fill: #ced0d8;
      }

      .cls-1 {
        opacity: 0;
      }
    </style>
  </defs>
  <g id="组_1766" data-name="组 1766" transform="translate(-24 -306)">
    <rect id="矩形_85" data-name="矩形 85" class="cls-1" width="16" height="16" transform="translate(24 306)"/>
    <g id="组_60" data-name="组 60" transform="translate(-90.2 242)">
      <path id="路径_70" data-name="路径 70" class="cls-2" d="M117.411,68.423a2.211,2.211,0,1,1,2.211-2.211A2.218,2.218,0,0,1,117.411,68.423Zm0-3.317a1.106,1.106,0,1,0,1.106,1.106A1.045,1.045,0,0,0,117.411,65.106Z"/>
      <path id="路径_71" data-name="路径 71" class="cls-2" d="M211.766,268.162a.529.529,0,0,1-.566-.553V256.553a.566.566,0,0,1,1.132,0v11.057A.529.529,0,0,1,211.766,268.162Zm9.511,0a2.212,2.212,0,1,1,2.264-2.211A2.245,2.245,0,0,1,221.277,268.162Zm0-3.317a1.106,1.106,0,1,0,1.132,1.106A1.057,1.057,0,0,0,221.277,264.845Z" transform="translate(-94.341 -188.162)"/>
      <path id="路径_72" data-name="路径 72" class="cls-2" d="M497.775,76.571a.531.531,0,0,1-.553-.571V64.571a.553.553,0,1,1,1.106,0V76A.531.531,0,0,1,497.775,76.571ZM493.353,80a.531.531,0,0,1-.553-.571V73.143a.553.553,0,1,1,1.106,0v6.286A.531.531,0,0,1,493.353,80Zm0-10.286a.531.531,0,0,1-.553-.571V64.571a.553.553,0,1,1,1.106,0v4.571A.531.531,0,0,1,493.353,69.714Z" transform="translate(-370.787)"/>
      <path id="路径_73" data-name="路径 73" class="cls-2" d="M399.011,356.423a2.211,2.211,0,1,1,2.211-2.211A2.218,2.218,0,0,1,399.011,356.423Zm0-3.317a1.106,1.106,0,1,0,1.106,1.106A1.045,1.045,0,0,0,399.011,353.106Z" transform="translate(-276.583 -282.79)"/>
    </g>
  </g>
</svg>
