<svg xmlns="http://www.w3.org/2000/svg" width="18" height="18" viewBox="0 0 18 18">
  <defs>
    <style>
      .cls-1 {
        fill: #ced0d8;
      }
    </style>
  </defs>
  <path id="路径_6715" data-name="路径 6715" class="cls-1" d="M70.255,74.077a.152.152,0,0,0-.029.051l-.906,3.433a.6.6,0,0,0,.144.567.56.56,0,0,0,.547.148l3.3-.93c.005,0,.008,0,.012,0a.14.14,0,0,0,.1-.044l8.816-9.114a1.485,1.485,0,0,0,.405-1.042A1.812,1.812,0,0,0,82.13,65.9l-.833-.862a1.7,1.7,0,0,0-1.207-.532,1.389,1.389,0,0,0-1.008.419l-8.814,9.116c-.009.009-.007.022-.013.032M81.376,67.3l-.876.9-1.42-1.491.863-.893a.4.4,0,0,1,.558.042l.833.862a.477.477,0,0,1,.137.327.354.354,0,0,1-.1.248M71.823,74.22l6.361-6.578,1.42,1.492L73.255,75.7,71.823,74.22Zm-1.159,2.667.46-1.745L72.35,76.41l-1.686.477Zm11.271-5.974a.621.621,0,0,0-.609.63v8.5a.8.8,0,0,1-.782.807h-13.9a.8.8,0,0,1-.782-.807V66.172a.8.8,0,0,1,.782-.808H75.6a.629.629,0,0,0,0-1.257H66.55a1.941,1.941,0,0,0-1.906,1.97v14.06a1.941,1.941,0,0,0,1.906,1.97H80.636a1.94,1.94,0,0,0,1.906-1.97v-8.6a.62.62,0,0,0-.608-.626" transform="translate(-64.644 -64.106)"/>
</svg>
