<svg xmlns="http://www.w3.org/2000/svg" width="14" height="14" viewBox="0 0 14 14">
  <defs>
    <style>
      .cls-1, .cls-2 {
        fill: #fff;
      }

      .cls-1 {
        opacity: 0;
      }
    </style>
  </defs>
  <g id="组_1403" data-name="组 1403" transform="translate(-1148 -324)">
    <rect id="矩形_993" data-name="矩形 993" class="cls-1" width="14" height="14" transform="translate(1148 324)"/>
    <path id="路径_547" data-name="路径 547" class="cls-2" d="M7,14a6.982,6.982,0,1,1,.009,0ZM7,1.282a5.718,5.718,0,0,0-4.043,9.761,5.718,5.718,0,1,0,8.086-8.086A5.682,5.682,0,0,0,7.015,1.282Zm-1.97,8.7a.97.97,0,0,1-.486-.847V4.476A.976.976,0,0,1,5.521,3.5a.961.961,0,0,1,.485.144l4.021,2.322a.976.976,0,0,1,0,1.688L6.006,9.975a.969.969,0,0,1-.976,0Zm.617-1.07,3.635-2.1-3.635-2.1Z" transform="translate(1148 324)"/>
  </g>
</svg>
