<svg xmlns="http://www.w3.org/2000/svg" width="14" height="14" viewBox="0 0 14 14">
  <defs>
    <style>
      .cls-1 {
        fill: #fff;
        opacity: 0;
      }

      .cls-2 {
        fill: #ced0d8;
      }
    </style>
  </defs>
  <g id="组_1752" data-name="组 1752" transform="translate(-739 -5822)">
    <rect id="矩形_115" data-name="矩形 115" class="cls-1" width="14" height="14" transform="translate(739 5822)"/>
    <g id="组_368" data-name="组 368" transform="translate(248 4496)">
      <path id="路径_388" data-name="路径 388" class="cls-2" d="M90.833,0a5.41,5.41,0,0,0-5.5,5.254c0,4.658,5.06,7.529,5.28,7.637a.221.221,0,0,0,.22.108.335.335,0,0,0,.22-.054c.22-.108,5.28-3.033,5.28-7.638A5.419,5.419,0,0,0,90.833,0Zm0,11.917c-.88-.542-4.4-3.033-4.4-6.554a4.4,4.4,0,0,1,8.8,0C95.233,8.883,91.713,11.375,90.833,11.917Zm0-9.208a2.709,2.709,0,1,0,2.75,2.708A2.7,2.7,0,0,0,90.833,2.708Zm0,4.333a1.625,1.625,0,1,1,1.65-1.625A1.608,1.608,0,0,1,90.833,7.042Z" transform="translate(405.667 1326)"/>
      <path id="路径_389" data-name="路径 389" class="cls-2" d="M85.5,102.478H84.25v-1.252a.625.625,0,0,0-1.25,0v1.252H81.749a.625.625,0,0,0,0,1.25H83v1.252a.625.625,0,0,0,1.25,0v-1.252H85.5a.625.625,0,0,0,0-1.25Z" transform="translate(418.875 1234.398)"/>
    </g>
  </g>
</svg>
