<svg xmlns="http://www.w3.org/2000/svg" width="16" height="16" viewBox="0 0 16 16">
  <defs>
    <style>
      .cls-1, .cls-2 {
        fill: #fff;
      }

      .cls-1 {
        opacity: 0;
      }
    </style>
  </defs>
  <g id="组_2958" data-name="组 2958" transform="translate(-487 -1493)">
    <rect id="矩形_115" data-name="矩形 115" class="cls-1" width="16" height="16" transform="translate(487 1493)"/>
    <g id="组_368" data-name="组 368" transform="translate(487 1493)">
      <path id="路径_388" data-name="路径 388" class="cls-2" d="M91.619,0a6.182,6.182,0,0,0-6.286,6c0,5.324,5.783,8.6,6.034,8.729a.252.252,0,0,0,.251.124.382.382,0,0,0,.251-.062c.251-.124,6.034-3.467,6.034-8.729A6.193,6.193,0,0,0,91.619,0Zm0,13.619C90.613,13,86.59,10.152,86.59,6.129a5.031,5.031,0,0,1,10.057,0C96.647,10.152,92.624,13,91.619,13.619Zm0-10.524a3.1,3.1,0,1,0,3.143,3.1A3.089,3.089,0,0,0,91.619,3.1Zm0,4.952A1.857,1.857,0,1,1,93.5,6.19,1.838,1.838,0,0,1,91.619,8.048Z" transform="translate(-85.333)"/>
      <path id="路径_389" data-name="路径 389" class="cls-2" d="M86.127,102.746H84.7v-1.431a.714.714,0,0,0-1.428,0v1.431H81.838a.714.714,0,0,0,0,1.428h1.431V105.6a.714.714,0,0,0,1.428,0v-1.431h1.431a.714.714,0,0,0,0-1.428Z" transform="translate(-70.839 -90.316)"/>
    </g>
  </g>
</svg>
