<svg xmlns="http://www.w3.org/2000/svg" width="20" height="20" viewBox="0 0 20 20">
  <defs>
    <style>
      .cls-1 {
        fill: #5a5d74;
      }
    </style>
  </defs>
  <path id="路径_122" data-name="路径 122" class="cls-1" d="M21.87,34.57a9.561,9.561,0,0,1,8.009-2.588,9.721,9.721,0,0,1,6.987,4.781l.331-1.64a.8.8,0,0,1,.982-.581.826.826,0,0,1,.566,1.008l-.846,4.2a.8.8,0,0,1-.7.6.757.757,0,0,1-.375,0l-4.043-1.407a.818.818,0,0,1-.562-1,.792.792,0,0,1,.972-.577l2.514.875.066-.077a8.175,8.175,0,1,0-7.262,12.046,8.032,8.032,0,0,0,6.022-2.749q.142-.162.277-.333a.794.794,0,0,1,1.078-.161.836.836,0,0,1,.349.567.85.85,0,0,1-.171.648q-.16.2-.33.4A9.574,9.574,0,0,1,26.2,51.6a9.863,9.863,0,0,1-7.111-7.187A10.175,10.175,0,0,1,21.87,34.57Z" transform="translate(-18.772 -31.883)"/>
</svg>
