<svg xmlns="http://www.w3.org/2000/svg" width="36" height="36" viewBox="0 0 36 36">
  <defs>
    <style>
      .cls-1 {
        fill: #9c9dac;
      }

      .cls-2, .cls-3 {
        fill: #fff;
      }

      .cls-2 {
        opacity: 0;
      }
    </style>
  </defs>
  <g id="组_2706" data-name="组 2706" transform="translate(6156 -1929)">
    <circle id="椭圆_437" data-name="椭圆 437" class="cls-1" cx="18" cy="18" r="18" transform="translate(-6156 1929)"/>
    <g id="组_1085" data-name="组 1085" transform="translate(-6169 -3265)">
      <rect id="矩形_988" data-name="矩形 988" class="cls-2" width="22" height="22" transform="translate(20 5201)"/>
      <path id="路径_107" data-name="路径 107" class="cls-3" d="M22.18,34.839a10.517,10.517,0,0,1,8.81-2.847,10.693,10.693,0,0,1,7.686,5.26l.364-1.8a.879.879,0,0,1,1.08-.639.908.908,0,0,1,.623,1.109l-.931,4.622a.882.882,0,0,1-.771.66.833.833,0,0,1-.413,0l-4.447-1.547a.9.9,0,0,1-.618-1.1.871.871,0,0,1,1.07-.635l2.766.962.073-.085a8.992,8.992,0,1,0-7.989,13.251A8.836,8.836,0,0,0,36.1,49.023q.157-.178.3-.367a.873.873,0,0,1,1.186-.177.919.919,0,0,1,.384.624.935.935,0,0,1-.188.712q-.176.222-.363.435a10.531,10.531,0,0,1-10.487,3.319,10.849,10.849,0,0,1-7.822-7.905A11.192,11.192,0,0,1,22.18,34.839Z" transform="translate(1.228 5169.117)"/>
    </g>
  </g>
</svg>
