<svg xmlns="http://www.w3.org/2000/svg" width="22" height="22" viewBox="0 0 22 22">
  <defs>
    <style>
      .cls-1, .cls-2 {
        fill: #fff;
      }

      .cls-1 {
        opacity: 0;
      }
    </style>
  </defs>
  <g id="组_1686" data-name="组 1686" transform="translate(-20 -5243)">
    <rect id="矩形_987" data-name="矩形 987" class="cls-1" width="22" height="22" transform="translate(20 5243)"/>
    <path id="路径_108" data-name="路径 108" class="cls-2" d="M37.49,34.839a10.517,10.517,0,0,0-8.81-2.847,10.693,10.693,0,0,0-7.686,5.26l-.364-1.8a.879.879,0,0,0-1.08-.639.908.908,0,0,0-.623,1.109l.931,4.622a.882.882,0,0,0,.771.66.833.833,0,0,0,.413,0l4.447-1.547a.9.9,0,0,0,.618-1.1.871.871,0,0,0-1.07-.635l-2.766.962L22.2,38.8a8.992,8.992,0,1,1,7.989,13.251,8.836,8.836,0,0,1-6.624-3.024q-.157-.178-.3-.367a.873.873,0,0,0-1.186-.177.919.919,0,0,0-.384.624.935.935,0,0,0,.188.712q.176.222.363.435a10.531,10.531,0,0,0,10.487,3.319,10.849,10.849,0,0,0,7.822-7.905A11.192,11.192,0,0,0,37.49,34.839Z" transform="translate(1.103 5211.117)"/>
  </g>
</svg>
