<svg xmlns="http://www.w3.org/2000/svg" width="16" height="16" viewBox="0 0 16 16">
  <defs>
    <style>
      .cls-1, .cls-2 {
        fill: #54dec7;
      }

      .cls-1 {
        opacity: 0;
      }
    </style>
  </defs>
  <g id="组_1116" data-name="组 1116" transform="translate(-1148 -324)">
    <rect id="矩形_993" data-name="矩形 993" class="cls-1" width="16" height="16" transform="translate(1148 324)"/>
    <path id="路径_547" data-name="路径 547" class="cls-2" d="M8,16a7.979,7.979,0,1,1,.01,0ZM8,1.465A6.535,6.535,0,0,0,3.38,12.621,6.535,6.535,0,1,0,12.621,3.38a6.494,6.494,0,0,0-4.6-1.914ZM5.749,11.4a1.109,1.109,0,0,1-.555-.968V5.116A1.116,1.116,0,0,1,6.31,4a1.1,1.1,0,0,1,.554.165l4.6,2.653a1.115,1.115,0,0,1,0,1.929L6.864,11.4a1.108,1.108,0,0,1-1.115,0Zm.706-1.223,4.154-2.4-4.154-2.4Z" transform="translate(1148 324)"/>
  </g>
</svg>
