<svg xmlns="http://www.w3.org/2000/svg" width="14" height="14" viewBox="0 0 14 14">
  <defs>
    <style>
      .cls-1 {
        fill: #fff;
        opacity: 0;
      }

      .cls-2 {
        fill: #ced0d8;
      }
    </style>
  </defs>
  <g id="组_1744" data-name="组 1744" transform="translate(-344 -5822)">
    <rect id="矩形_117" data-name="矩形 117" class="cls-1" width="14" height="14" transform="translate(344 5822)"/>
    <path id="联合_2" data-name="联合 2" class="cls-2" d="M9.509,13.31V11.924H8.11a.692.692,0,1,1,0-1.383h1.4V9.155a.7.7,0,0,1,1.4,0v1.386h1.4a.692.692,0,1,1,0,1.383H10.9V13.31a.7.7,0,0,1-1.4,0ZM4.683,14a.335.335,0,0,1-.313-.351V7H-.374A.668.668,0,0,1-1,6.3V.7A.668.668,0,0,1-.374,0H10.35a.668.668,0,0,1,.626.7V6.3a.668.668,0,0,1-.626.7H5.607v6.649A.335.335,0,0,1,5.293,14ZM.253,5.6H9.723V1.4H.253ZM1.475,4.216V2.833h7.04V4.216Z" transform="translate(345 5822)"/>
  </g>
</svg>
