<svg xmlns="http://www.w3.org/2000/svg" width="16" height="16" viewBox="0 0 16 16">
  <defs>
    <style>
      .cls-1, .cls-2 {
        fill: #ced0d8;
      }

      .cls-1 {
        opacity: 0;
      }
    </style>
  </defs>
  <g id="组_1765" data-name="组 1765" transform="translate(-24 -266)">
    <rect id="矩形_84" data-name="矩形 84" class="cls-1" width="16" height="16" transform="translate(24 266)"/>
    <path id="路径_74" data-name="路径 74" class="cls-2" d="M117.267,147.544a2.291,2.291,0,1,1-2.2,2.289,2.246,2.246,0,0,1,2.2-2.289m0-1.018a3.31,3.31,0,1,0,3.176,3.307,3.244,3.244,0,0,0-3.176-3.307m7.852,5.327a8.734,8.734,0,0,0,0-3.814.489.489,0,0,0-.588-.379.51.51,0,0,0-.364.612,7.67,7.67,0,0,1,0,3.349.51.51,0,0,0,.364.612.489.489,0,0,0,.588-.379Zm-.578.391c.031,0,.057,0,.08,0a.509.509,0,0,0,.043-1.017c-.04,0-.079,0-.123,0a.509.509,0,0,0,0,1.018Zm-1.6,3.062a2.053,2.053,0,0,1-.077-2.026,1.894,1.894,0,0,1,1.673-1.037.509.509,0,0,0,0-1.018,2.867,2.867,0,0,0-2.532,1.569,3.107,3.107,0,0,0,.117,3.067.477.477,0,0,0,.676.149.522.522,0,0,0,.143-.7Zm-3.309,2.618a7.92,7.92,0,0,0,3.238-1.974.524.524,0,0,0,.013-.72.475.475,0,0,0-.691-.014,6.951,6.951,0,0,1-2.841,1.732.513.513,0,0,0-.328.634.486.486,0,0,0,.609.341Zm-4.029-.271a1.873,1.873,0,0,1,3.445,0,.481.481,0,0,0,.65.244.518.518,0,0,0,.235-.677,2.835,2.835,0,0,0-5.216,0,.518.518,0,0,0,.234.677.481.481,0,0,0,.65-.244Zm-3.8-1.681a7.93,7.93,0,0,0,3.216,1.951.486.486,0,0,0,.609-.341.513.513,0,0,0-.328-.634,6.96,6.96,0,0,1-2.823-1.713.475.475,0,0,0-.691.017A.524.524,0,0,0,111.808,155.972Zm-1.656-3.729a1.9,1.9,0,0,1,1.678,1.045,2.052,2.052,0,0,1-.091,2.033.522.522,0,0,0,.136.706.477.477,0,0,0,.678-.142,3.107,3.107,0,0,0,.139-3.079,2.868,2.868,0,0,0-2.54-1.582.509.509,0,0,0,0,1.018Zm-.108,0c.033,0,.069,0,.108,0a.509.509,0,0,0,0-1.018c-.056,0-.11,0-.161,0a.5.5,0,0,0-.461.536.5.5,0,0,0,.515.48Zm-.5-4.208a8.723,8.723,0,0,0,0,3.816.489.489,0,0,0,.588.38.51.51,0,0,0,.365-.612,7.662,7.662,0,0,1,0-3.352.51.51,0,0,0-.364-.612A.489.489,0,0,0,109.541,148.038Zm.61-.389c-.04,0-.075,0-.108,0a.5.5,0,0,0-.515.48.5.5,0,0,0,.461.536c.052,0,.105,0,.161,0a.509.509,0,0,0,0-1.018Zm1.587-3.079a2.053,2.053,0,0,1,.091,2.033,1.9,1.9,0,0,1-1.677,1.045.509.509,0,0,0,0,1.018,2.868,2.868,0,0,0,2.538-1.582,3.106,3.106,0,0,0-.138-3.077.477.477,0,0,0-.669-.13A.522.522,0,0,0,111.739,144.57Zm3.285-2.6a7.925,7.925,0,0,0-3.216,1.951.524.524,0,0,0-.016.72.475.475,0,0,0,.691.017,6.959,6.959,0,0,1,2.823-1.713.513.513,0,0,0,.328-.634.486.486,0,0,0-.609-.341Zm4.029.272a1.873,1.873,0,0,1-3.445,0,.481.481,0,0,0-.65-.244.518.518,0,0,0-.234.677,2.835,2.835,0,0,0,5.216,0,.518.518,0,0,0-.234-.677.481.481,0,0,0-.65.244Zm3.822,1.7a7.931,7.931,0,0,0-3.238-1.974.486.486,0,0,0-.609.341.513.513,0,0,0,.327.634,6.962,6.962,0,0,1,2.841,1.732.475.475,0,0,0,.691-.014.524.524,0,0,0-.014-.72Zm1.667,3.707a1.894,1.894,0,0,1-1.674-1.036,2.053,2.053,0,0,1,.077-2.026.522.522,0,0,0-.143-.7.477.477,0,0,0-.676.149,3.107,3.107,0,0,0-.117,3.066,2.867,2.867,0,0,0,2.533,1.57.509.509,0,0,0,0-1.018Zm.08,0-.08,0a.509.509,0,0,0,0,1.018c.044,0,.084,0,.123,0a.509.509,0,0,0-.043-1.017Zm0,0" transform="translate(-85.33 124.054)"/>
  </g>
</svg>
