<svg xmlns="http://www.w3.org/2000/svg" width="14" height="14" viewBox="0 0 14 14">
  <defs>
    <style>
      .cls-1, .cls-2 {
        fill: #09f;
      }

      .cls-1 {
        opacity: 0;
      }
    </style>
  </defs>
  <g id="组_1704" data-name="组 1704" transform="translate(-68 -637)">
    <rect id="矩形_922" data-name="矩形 922" class="cls-1" width="14" height="14" transform="translate(68 637)"/>
    <path id="路径_552" data-name="路径 552" class="cls-2" d="M198.848,156.487h-.876v-1.255a2.107,2.107,0,0,0-2.1-2.1h-1.491v-.876a1.453,1.453,0,0,0-1.452-1.452h-1.109a1.453,1.453,0,0,0-1.452,1.452v.876H188.4a2.107,2.107,0,0,0-2.1,2.1v2.493h1.849a.466.466,0,0,1,.465.465V159.3a.466.466,0,0,1-.465.465H186.3V162.7a2.107,2.107,0,0,0,2.1,2.1h2.713v-1.857a.466.466,0,0,1,.465-.465h1.109a.466.466,0,0,1,.465.465V164.8h2.713a2.107,2.107,0,0,0,2.1-2.1v-2.2h.876a1.453,1.453,0,0,0,1.452-1.452v-1.109a1.454,1.454,0,0,0-1.452-1.45Zm.465,2.561a.466.466,0,0,1-.465.465h-1.863V162.7a1.118,1.118,0,0,1-1.117,1.117h-1.726v-.87a1.453,1.453,0,0,0-1.452-1.452h-1.109a1.453,1.453,0,0,0-1.452,1.452v.87H188.4a1.118,1.118,0,0,1-1.117-1.117V160.75h.862A1.453,1.453,0,0,0,189.6,159.3V158.19a1.453,1.453,0,0,0-1.452-1.452h-.862v-1.506a1.118,1.118,0,0,1,1.117-1.117h2.949v-1.863a.466.466,0,0,1,.465-.465h1.109a.466.466,0,0,1,.465.465v1.863h2.48a1.118,1.118,0,0,1,1.117,1.117v2.242h1.863a.466.466,0,0,1,.465.465v1.109Z" transform="translate(-118.3 486.2)"/>
  </g>
</svg>
