<svg xmlns="http://www.w3.org/2000/svg" width="14" height="14" viewBox="0 0 14 14">
  <defs>
    <style>
      .cls-1 {
        fill: #fff;
        opacity: 0;
      }

      .cls-2 {
        fill: #ced0d8;
      }
    </style>
  </defs>
  <g id="组_1751" data-name="组 1751" transform="translate(-893 -5822)">
    <rect id="矩形_116" data-name="矩形 116" class="cls-1" width="14" height="14" transform="translate(893 5822)"/>
    <g id="组_367" data-name="组 367" transform="translate(402 4496)">
      <path id="路径_388" data-name="路径 388" class="cls-2" d="M90.833,0a5.41,5.41,0,0,0-5.5,5.254c0,4.658,5.06,7.529,5.28,7.637a.221.221,0,0,0,.22.108.335.335,0,0,0,.22-.054c.22-.108,5.28-3.033,5.28-7.638A5.419,5.419,0,0,0,90.833,0Zm0,11.917c-.88-.542-4.4-3.033-4.4-6.554a4.4,4.4,0,0,1,8.8,0C95.233,8.883,91.713,11.375,90.833,11.917Zm0-9.208a2.709,2.709,0,1,0,2.75,2.708A2.7,2.7,0,0,0,90.833,2.708Zm0,4.333a1.625,1.625,0,1,1,1.65-1.625A1.608,1.608,0,0,1,90.833,7.042Z" transform="translate(405.667 1326)"/>
      <path id="路径_390" data-name="路径 390" class="cls-2" d="M177.213,61.44H173.7a.277.277,0,0,0-.243.3v2.407a.277.277,0,0,0,.243.3H175V66.29a.139.139,0,0,0,.122.15h.752a.139.139,0,0,0,.122-.15V64.448h1.219a.277.277,0,0,0,.243-.3V61.741A.277.277,0,0,0,177.213,61.44Zm-.492,2.242h-2.482V62.23h2.482Z" transform="translate(327.545 1273.56)"/>
    </g>
  </g>
</svg>
