<svg xmlns="http://www.w3.org/2000/svg" width="16" height="16" viewBox="0 0 16 16">
  <defs>
    <style>
      .cls-1, .cls-2 {
        fill: #ced0d8;
      }

      .cls-1 {
        opacity: 0;
      }
    </style>
  </defs>
  <g id="组_1770" data-name="组 1770" transform="translate(-24 -466)">
    <rect id="矩形_89" data-name="矩形 89" class="cls-1" width="16" height="16" transform="translate(24 466)"/>
    <g id="组_290" data-name="组 290" transform="translate(21.245 466)">
      <path id="路径_361" data-name="路径 361" class="cls-2" d="M17.738,0H3.772A1.015,1.015,0,0,0,2.755,1.011V11.351a1.015,1.015,0,0,0,1.017,1.011H10.19v2.409a.562.562,0,0,0,.01.1H5.105a.562.562,0,1,0,0,1.124H16.4a.562.562,0,1,0,0-1.124H11.31a.562.562,0,0,0,.01-.1V12.362h6.418a1.015,1.015,0,0,0,1.017-1.011V1.011A1.015,1.015,0,0,0,17.738,0Zm-.113,11.238H3.885V1.124h13.74Z"/>
      <path id="路径_362" data-name="路径 362" class="cls-2" d="M199.761,300.427l3.552,1.708a.814.814,0,0,0,.695,0l3.87-1.881-.7-.963L203.656,301l-3.561-1.714a.814.814,0,0,0-.709.008l-3.509,1.8.726.948Z" transform="translate(-191.264 -294.307)"/>
    </g>
  </g>
</svg>
