<svg xmlns="http://www.w3.org/2000/svg" width="16" height="16" viewBox="0 0 16 16">
  <defs>
    <style>
      .cls-1 {
        fill: #fff;
        opacity: 0;
      }

      .cls-2 {
        fill: #f47a88;
      }
    </style>
  </defs>
  <g id="组_605" data-name="组 605" transform="translate(-7460 -4170)">
    <rect id="矩形_856" data-name="矩形 856" class="cls-1" width="16" height="16" transform="translate(7460 4170)"/>
    <path id="路径_438" data-name="路径 438" class="cls-2" d="M131.733,126.344a6.914,6.914,0,0,1-13.748.014h-.679a.534.534,0,0,1-.465-.8l1.519-2.618a.538.538,0,0,1,.929,0l1.519,2.618a.534.534,0,0,1-.465.8h-.591a5.141,5.141,0,1,0,2.261-4.992.915.915,0,0,1-1.222-.163.87.87,0,0,1,.2-1.258A6.888,6.888,0,0,1,124,118.824v-.992h-.7a.437.437,0,0,1-.438-.436v-.44a.437.437,0,0,1,.438-.436h3.264a.437.437,0,0,1,.438.436v.44a.437.437,0,0,1-.438.436h-.775v1a6.891,6.891,0,0,1,5.947,7.51m-4.53.767a.864.864,0,0,1,.294,1.19.874.874,0,0,1-1.2.292l-2.613-1.574a.866.866,0,0,1-.42-.741v-3.093a.871.871,0,0,1,1.742,0v2.6Z" transform="translate(7343.231 4053.48)"/>
  </g>
</svg>
