<svg xmlns="http://www.w3.org/2000/svg" width="16" height="16" viewBox="0 0 16 16">
  <defs>
    <style>
      .cls-1 {
        fill: #fff;
        opacity: 0;
      }

      .cls-2 {
        fill: #d693ed;
      }
    </style>
  </defs>
  <g id="组_606" data-name="组 606" transform="translate(-7460 -4170)">
    <rect id="矩形_856" data-name="矩形 856" class="cls-1" width="16" height="16" transform="translate(7460 4170)"/>
    <path id="路径_445" data-name="路径 445" class="cls-2" d="M12.8,3.189A3.957,3.957,0,0,0,8.8,0H4A3.945,3.945,0,0,0,0,3.889V7a3.9,3.9,0,0,0,3.28,3.889A3.958,3.958,0,0,0,7.2,14H12a3.945,3.945,0,0,0,4-3.889V7a3.9,3.9,0,0,0-3.2-3.811ZM1.6,7V3.889A2.367,2.367,0,0,1,4,1.556H8.8a2.4,2.4,0,0,1,2.256,1.555H7.2A3.945,3.945,0,0,0,3.2,7V9.193A2.338,2.338,0,0,1,1.6,7Zm12.8,3.111A2.367,2.367,0,0,1,12,12.444H7.2a2.367,2.367,0,0,1-2.4-2.333V7A2.367,2.367,0,0,1,7.2,4.667H12A2.367,2.367,0,0,1,14.4,7Z" transform="translate(7460 4171)"/>
  </g>
</svg>
