<svg xmlns="http://www.w3.org/2000/svg" width="16" height="16" viewBox="0 0 16 16">
  <defs>
    <style>
      .cls-1 {
        fill: #f4ca7a;
      }
    </style>
  </defs>
  <path id="路径_461" data-name="路径 461" class="cls-1" d="M91.61,78.266H79.653A2.026,2.026,0,0,0,77.63,80.29V92.243a2.026,2.026,0,0,0,2.022,2.023H91.6a2.026,2.026,0,0,0,2.022-2.023V80.469h.008v-.18A2.023,2.023,0,0,0,91.61,78.266Zm.843,8.355H86.13a.585.585,0,0,0-.351.1l-2.858,2.088a1.517,1.517,0,0,0-.566-.113,1.564,1.564,0,1,0,1.564,1.564,1.535,1.535,0,0,0-.125-.605l2.534-1.844h6.124v4.463a.8.8,0,0,1-.787.82H79.678a.79.79,0,0,1-.787-.828v-6.35h6.321a.6.6,0,0,0,.344-.1l0,0,2.862-2.08a1.525,1.525,0,0,0,.566.113,1.571,1.571,0,1,0-1.439-.957l-2.534,1.844H78.891V80.272a.79.79,0,0,1,.787-.828H91.666a.79.79,0,0,1,.787.828Zm0,0" transform="translate(-77.63 -78.266)"/>
</svg>
