<svg xmlns="http://www.w3.org/2000/svg" width="16" height="16" viewBox="0 0 16 16">
  <defs>
    <style>
      .cls-1 {
        fill: #f4ca7a;
      }
    </style>
  </defs>
  <path id="路径_462" data-name="路径 462" class="cls-1" d="M10-419a3,3,0,0,1,3-3,3,3,0,0,1,3,3,3,3,0,0,1-3,3A3,3,0,0,1,10-419Zm.661,0A2.342,2.342,0,0,0,13-416.661,2.341,2.341,0,0,0,15.339-419,2.342,2.342,0,0,0,13-421.34,2.342,2.342,0,0,0,10.661-419Zm-8.638,3A2.029,2.029,0,0,1,0-418.023v-11.954A2.027,2.027,0,0,1,2.022-432H13.98A2.024,2.024,0,0,1,16-429.977v.18h-.008l0,7.341H8.7l-2.534,1.844a1.54,1.54,0,0,1,.125.606,1.569,1.569,0,0,1-1.564,1.564,1.568,1.568,0,0,1-1.563-1.564,1.568,1.568,0,0,1,1.563-1.564,1.512,1.512,0,0,1,.566.113l2.858-2.087a.577.577,0,0,1,.351-.1h6.323v-6.349a.791.791,0,0,0-.787-.828H2.048a.791.791,0,0,0-.788.828v4.467H7.385l2.534-1.844a1.548,1.548,0,0,1-.124-.608,1.568,1.568,0,0,1,1.563-1.564,1.57,1.57,0,0,1,1.563,1.564,1.566,1.566,0,0,1-1.563,1.565,1.531,1.531,0,0,1-.566-.113l-2.862,2.08a.605.605,0,0,1-.326.1H1.261V-418a.79.79,0,0,0,.788.828H9.22V-416Zm10.547-3a.43.43,0,0,1,.43-.43.43.43,0,0,1,.43.43.43.43,0,0,1-.43.43A.43.43,0,0,1,12.569-419Zm-1.327,0a.432.432,0,0,1,.433-.433.432.432,0,0,1,.432.433.432.432,0,0,1-.432.432A.432.432,0,0,1,11.242-419Zm2.66,0a.419.419,0,0,1,.419-.419.42.42,0,0,1,.419.419.419.419,0,0,1-.419.418A.418.418,0,0,1,13.9-419Z" transform="translate(0 432)"/>
</svg>
