<svg xmlns="http://www.w3.org/2000/svg" width="16" height="16" viewBox="0 0 16 16">
  <defs>
    <style>
      .cls-1 {
        fill: #54dec7;
      }
    </style>
  </defs>
  <path id="路径_460" data-name="路径 460" class="cls-1" d="M119.821,117.622a6.908,6.908,0,1,1-6.907,6.909,6.915,6.915,0,0,1,6.907-6.909m0-1.091a8,8,0,1,0,8,8A8,8,0,0,0,119.821,116.531Zm-1.548,11.715a.917.917,0,0,1-.895-.995v-5.445a.919.919,0,0,1,.895-.995,1.122,1.122,0,0,1,.553.158l4.716,2.725a.922.922,0,0,1,0,1.672l-4.716,2.723A1.1,1.1,0,0,1,118.273,128.247Z" transform="translate(-111.821 -116.531)"/>
</svg>
