<svg xmlns="http://www.w3.org/2000/svg" width="16" height="16" viewBox="0 0 16 16">
  <defs>
    <style>
      .cls-1, .cls-2 {
        fill: #54dec7;
      }

      .cls-1 {
        opacity: 0;
      }
    </style>
  </defs>
  <g id="组_604" data-name="组 604" transform="translate(-7460 -4170)">
    <rect id="矩形_855" data-name="矩形 855" class="cls-1" width="16" height="16" transform="translate(7460 4170)"/>
    <path id="路径_442" data-name="路径 442" class="cls-2" d="M22.061,116.7a.5.5,0,0,0-.753.468v.9H18.154a3.281,3.281,0,0,1-3.145-3.4,3.525,3.525,0,0,1,.66-2.07,1.142,1.142,0,0,0-.179-1.519.958.958,0,0,0-1.408.193,5.793,5.793,0,0,0-1.078,3.4,5.373,5.373,0,0,0,5.151,5.559h3.152v.9a.5.5,0,0,0,.753.468l3.175-1.979a.563.563,0,0,0,0-.936L22.061,116.7Zm-2.113-4.07a.5.5,0,0,0,.753-.468v-.9h3.154a3.281,3.281,0,0,1,3.145,3.4,3.525,3.525,0,0,1-.66,2.07,1.142,1.142,0,0,0,.179,1.519.958.958,0,0,0,1.408-.193,5.793,5.793,0,0,0,1.078-3.4,5.373,5.373,0,0,0-5.151-5.559H20.7v-.9a.5.5,0,0,0-.753-.468l-3.175,1.979a.563.563,0,0,0,0,.936l3.175,1.975Z" transform="translate(7446.995 4063.333)"/>
  </g>
</svg>
