<svg xmlns="http://www.w3.org/2000/svg" width="16" height="16.001" viewBox="0 0 16 16.001">
  <defs>
    <style>
      .cls-1 {
        fill: #fff;
        opacity: 0;
      }

      .cls-2 {
        fill: #d693ed;
      }
    </style>
  </defs>
  <g id="组_2741" data-name="组 2741" transform="translate(-7460 -4170)">
    <rect id="矩形_856" data-name="矩形 856" class="cls-1" width="16" height="16" transform="translate(7460 4170)"/>
    <path id="路径_6704" data-name="路径 6704" class="cls-2" d="M124.079,123.837v-2.48a.16.16,0,0,1,.267-.119l3.6,3.241a.16.16,0,0,1,0,.238l-3.6,3.241a.16.16,0,0,1-.267-.119v-2.4H112.16a.16.16,0,0,1-.16-.16V124a.16.16,0,0,1,.16-.16Zm0-9.2v-2.48a.16.16,0,0,1,.267-.119l3.6,3.241a.16.16,0,0,1,0,.238l-3.6,3.241a.16.16,0,0,1-.267-.119v-2.4H112.16a.16.16,0,0,1-.16-.16V114.8a.16.16,0,0,1,.16-.16Z" transform="translate(7348 4058.002)"/>
  </g>
</svg>
