<svg xmlns="http://www.w3.org/2000/svg" width="16" height="16" viewBox="0 0 16 16">
  <defs>
    <style>
      .cls-1 {
        fill: #fff;
        opacity: 0;
      }

      .cls-2 {
        fill: #ced0d8;
      }
    </style>
  </defs>
  <g id="组_332" data-name="组 332" transform="translate(-5981 -1599)">
    <rect id="矩形_790" data-name="矩形 790" class="cls-1" width="16" height="16" transform="translate(5981 1599)"/>
    <path id="路径_385" data-name="路径 385" class="cls-2" d="M.754,16A.754.754,0,0,1,0,15.252V.748A.753.753,0,0,1,1.459.488,9.954,9.954,0,0,1,4.023.005,7.083,7.083,0,0,1,7.18.859,4.035,4.035,0,0,0,9.668,1.5a4.856,4.856,0,0,0,2.37-.526.759.759,0,0,1,.755.012s.295.116.295.689V8.583a.719.719,0,0,1-.342.667,7.06,7.06,0,0,1-3.079.737,6.686,6.686,0,0,1-3.162-.818A4.184,4.184,0,0,0,3.97,8.525a4.85,4.85,0,0,0-2.462.607v6.12A.754.754,0,0,1,.761,16ZM7.164,7.805a4.021,4.021,0,0,0,2.528.628s1.611.1,1.85-.477l.009-5.281a3.192,3.192,0,0,1-1.9.338,6.15,6.15,0,0,1-3.186-.818,5,5,0,0,0-2.5-.642A4.78,4.78,0,0,0,1.5,2.174V7.483a8.264,8.264,0,0,1,2.518-.477A6.745,6.745,0,0,1,7.164,7.805Z" transform="translate(5982.455 1599)"/>
  </g>
</svg>
