<svg xmlns="http://www.w3.org/2000/svg" width="14" height="14" viewBox="0 0 14 14">
  <defs>
    <style>
      .cls-1 {
        fill: #fff;
        opacity: 0.402;
      }
    </style>
  </defs>
  <path id="路径_569" data-name="路径 569" class="cls-1" d="M141.457,134.457H140.38a5.5,5.5,0,0,0-5.037-5.037v-1.077a.443.443,0,0,0-.886,0v1.077a5.5,5.5,0,0,0-5.037,5.037h-1.077a.443.443,0,0,0,0,.886h1.077a5.5,5.5,0,0,0,5.037,5.037v1.077a.443.443,0,0,0,.886,0V140.38a5.5,5.5,0,0,0,5.037-5.037h1.077a.443.443,0,0,0,0-.886Zm-1.963,0h-1.813a2.824,2.824,0,0,0-2.34-2.34V130.3A4.627,4.627,0,0,1,139.494,134.457Zm-5.037,0h-1.436a1.934,1.934,0,0,1,1.436-1.436Zm0,.886v1.436a1.934,1.934,0,0,1-1.436-1.436Zm.886,0h1.438a1.939,1.939,0,0,1-1.438,1.438Zm0-.886v-1.438a1.939,1.939,0,0,1,1.438,1.438Zm-.886-4.152v1.813a2.822,2.822,0,0,0-2.34,2.34H130.3A4.627,4.627,0,0,1,134.457,130.306Zm-4.152,5.037h1.813a2.822,2.822,0,0,0,2.34,2.34V139.5A4.627,4.627,0,0,1,130.306,135.343Zm5.037,4.152v-1.813a2.824,2.824,0,0,0,2.34-2.34H139.5A4.627,4.627,0,0,1,135.343,139.494Z" transform="translate(-127.9 -127.9)"/>
</svg>
