<svg xmlns="http://www.w3.org/2000/svg" width="16" height="16" viewBox="0 0 16 16">
  <defs>
    <style>
      .cls-1, .cls-2 {
        fill: #ced0d8;
      }

      .cls-1 {
        opacity: 0;
      }
    </style>
  </defs>
  <g id="组_1764" data-name="组 1764" transform="translate(-24 -226)">
    <rect id="矩形_83" data-name="矩形 83" class="cls-1" width="16" height="16" transform="translate(24 226)"/>
    <path id="路径_69" data-name="路径 69" class="cls-2" d="M172.727,110.688c0,.035-.015.055,0,.056l-11.428.008a.087.087,0,0,1-.025-.065v-9.355h11.455ZM161.273,98.253c0-.034.013-.054,0-.057h2.544v.314a.636.636,0,0,0,1.273,0V98.2h3.818v.314a.636.636,0,0,0,1.273,0V98.2h2.526a.092.092,0,0,1,.02.056v1.826H161.273Zm11.451-1.311h-2.542v-.314a.636.636,0,0,0-1.273,0v.314h-3.818v-.314a.636.636,0,0,0-1.273,0v.314h-2.551A1.291,1.291,0,0,0,160,98.253v12.436A1.291,1.291,0,0,0,161.268,112h11.465A1.291,1.291,0,0,0,174,110.689V98.253a1.3,1.3,0,0,0-1.276-1.312Zm-8.27,8.157h5.091a.628.628,0,1,0,0-1.255h-5.091a.628.628,0,1,0,0,1.255m0,3.137h5.091a.628.628,0,1,0,0-1.255h-5.091a.628.628,0,1,0,0,1.255" transform="translate(-135 130)"/>
  </g>
</svg>
