<svg xmlns="http://www.w3.org/2000/svg" width="16" height="16" viewBox="0 0 16 16">
  <defs>
    <style>
      .cls-1, .cls-2 {
        fill: #ced0d8;
      }

      .cls-1 {
        opacity: 0;
      }
    </style>
  </defs>
  <g id="组_2973" data-name="组 2973" transform="translate(-24 -226)">
    <rect id="矩形_83" data-name="矩形 83" class="cls-1" width="16" height="16" transform="translate(24 226)"/>
    <path id="路径_6717" data-name="路径 6717" class="cls-2" d="M4001.267,16A1.291,1.291,0,0,1,4000,14.689V2.253a1.29,1.29,0,0,1,1.267-1.311h2.551V.627a.637.637,0,0,1,1.273,0V.942h3.818V.627a.637.637,0,0,1,1.273,0V.942h2.543A1.294,1.294,0,0,1,4014,2.253v7.5h-1.272V5.333h-11.454v9.355a.091.091,0,0,0,.024.065l6.277-.007V16Zm.008-13.8c.005,0,0,.007,0,.02a.2.2,0,0,0,0,.035V4.079h11.454V2.253a.1.1,0,0,0-.019-.056h-2.526V2.51a.637.637,0,0,1-1.273,0V2.2h-3.818V2.51a.637.637,0,0,1-1.273,0V2.2h-2.543Zm7.224,11.052a2.751,2.751,0,1,1,2.752,2.75A2.754,2.754,0,0,1,4008.5,13.249Zm1.427,0a1.324,1.324,0,1,0,1.326-1.323A1.327,1.327,0,0,0,4009.926,13.249Zm-5.471-1.013a.628.628,0,1,1,0-1.255h1.743a.628.628,0,1,1,0,1.255Zm0-3.137a.628.628,0,1,1,0-1.255h5.09a.628.628,0,1,1,0,1.255Z" transform="translate(-3975 226)"/>
  </g>
</svg>
