<?xml version="1.0" standalone="no"?><!DOCTYPE svg PUBLIC "-//W3C//DTD SVG 1.1//EN" "http://www.w3.org/Graphics/SVG/1.1/DTD/svg11.dtd"><svg t="1584156797961" class="icon" viewBox="0 0 1026 1024" version="1.1" xmlns="http://www.w3.org/2000/svg" p-id="15014" xmlns:xlink="http://www.w3.org/1999/xlink" width="16.03125" height="16"><defs><style type="text/css"></style></defs><path d="M467.626667 645.12c-13.653333 0-23.893333-3.413333-34.133334-13.653333-27.306667-27.306667-44.373333-51.2-51.2-78.506667-6.826667-17.066667-20.48-34.133333-40.96-40.96-27.306667-10.24-51.2-23.893333-75.093333-51.2L34.133333 232.106667c-20.48-23.893333-34.133333-54.613333-34.133333-85.333334 0-30.72 13.653333-61.44 34.133333-85.333333l27.306667-27.306667c23.893333-23.893333 54.613333-34.133333 85.333333-34.133333 30.72 0 61.44 13.653333 85.333334 34.133333l228.693333 228.693334c27.306667 27.306667 40.96 51.2 51.2 75.093333 6.826667 20.48 23.893333 37.546667 44.373333 44.373333 27.306667 10.24 51.2 23.893333 75.093334 51.2 10.24 10.24 13.653333 20.48 13.653333 34.133334s-3.413333 23.893333-13.653333 34.133333l-129.706667 129.706667c-10.24 10.24-20.48 13.653333-34.133333 13.653333zM146.773333 34.133333c-23.893333 0-44.373333 10.24-61.44 23.893334l-27.306666 27.306666C44.373333 102.4 34.133333 122.88 34.133333 146.773333s10.24 44.373333 23.893334 61.44l228.693333 228.693334c23.893333 23.893333 40.96 37.546667 64.853333 44.373333 30.72 10.24 54.613333 34.133333 64.853334 64.853333 6.826667 20.48 20.48 40.96 44.373333 64.853334 6.826667 6.826667 13.653333 6.826667 17.066667 0l129.706666-129.706667c3.413333-3.413333 3.413333-6.826667 3.413334-10.24s0-6.826667-3.413334-10.24c-23.893333-23.893333-44.373333-37.546667-64.853333-44.373333-30.72-10.24-54.613333-34.133333-64.853333-64.853334-6.826667-20.48-20.48-40.96-44.373334-64.853333L208.213333 58.026667C191.146667 44.373333 170.666667 34.133333 146.773333 34.133333z" fill="#0099ff" p-id="15015"></path><path d="M962.56 1024c-3.413333 0-6.826667 0-6.826667-3.413333l-146.773333-75.093334c-20.48-10.24-34.133333-30.72-34.133333-54.613333v-30.72l-252.586667-252.586667c-6.826667-6.826667-6.826667-17.066667 0-23.893333s17.066667-6.826667 23.893333 0l259.413334 259.413333c3.413333 3.413333 3.413333 6.826667 3.413333 13.653334v37.546666c0 10.24 6.826667 20.48 13.653333 23.893334l136.533334 68.266666 27.306666-27.306666-68.266666-136.533334c-3.413333-10.24-13.653333-13.653333-23.893334-13.653333h-37.546666c-3.413333 0-10.24-3.413333-13.653334-3.413333L587.093333 546.133333c-6.826667-6.826667-6.826667-17.066667 0-23.893333s17.066667-6.826667 23.893334 0l252.586666 252.586667h30.72c23.893333 0 44.373333 13.653333 54.613334 34.133333L1024 955.733333c3.413333 6.826667 3.413333 13.653333-3.413333 20.48l-44.373334 44.373334c-3.413333 0-6.826667 3.413333-13.653333 3.413333z" fill="#0099ff" p-id="15016"></path><path d="M607.573333 559.786667c-3.413333 0-10.24-3.413333-13.653333-3.413334l-20.48-20.48c-3.413333-3.413333-3.413333-6.826667-3.413333-13.653333 0-3.413333 3.413333-10.24 3.413333-13.653333l34.133333-34.133334c3.413333-3.413333 3.413333-6.826667 3.413334-10.24s0-6.826667-3.413334-10.24c-23.893333-23.893333-44.373333-37.546667-64.853333-44.373333-13.653333-3.413333-30.72-13.653333-40.96-23.893333-6.826667-6.826667-6.826667-17.066667 0-23.893334l61.44-61.44c23.893333-23.893333 37.546667-58.026667 37.546667-85.333333-3.413333-51.2 20.48-102.4 68.266666-150.186667C709.973333 23.893333 761.173333 0 812.373333 0h3.413334c47.786667 0 92.16 17.066667 129.706666 47.786667 3.413333 3.413333 6.826667 10.24 6.826667 13.653333 0 6.826667-3.413333 10.24-6.826667 13.653333l-133.12 81.92c3.413333 44.373333 27.306667 81.92 68.266667 98.986667l119.466667-71.68c3.413333-3.413333 10.24-3.413333 17.066666 0 3.413333 3.413333 6.826667 6.826667 6.826667 13.653333 3.413333 58.026667-13.653333 109.226667-51.2 150.186667-37.546667 37.546667-92.16 61.44-153.6 61.44-17.066667 0-30.72-3.413333-51.2-6.826667l-146.773333 153.6c-3.413333 3.413333-6.826667 3.413333-13.653334 3.413334z m-51.2-177.493334c27.306667 10.24 51.2 23.893333 75.093334 51.2 10.24 10.24 13.653333 20.48 13.653333 34.133334 0 3.413333 0 10.24-3.413333 13.653333l109.226666-112.64c3.413333-3.413333 10.24-6.826667 17.066667-3.413333 20.48 6.826667 34.133333 6.826667 51.2 6.826666 51.2 0 95.573333-17.066667 126.293333-51.2 23.893333-23.893333 37.546667-58.026667 40.96-95.573333l-102.4 61.44c-3.413333 3.413333-10.24 3.413333-17.066666 0l-10.24-3.413333c-54.613333-27.306667-85.333333-81.92-85.333334-139.946667 0-6.826667 3.413333-10.24 6.826667-13.653333l119.466667-71.68c-20.48-13.653333-51.2-23.893333-81.92-23.893334h-3.413334c-44.373333 0-85.333333 20.48-119.466666 54.613334-40.96 44.373333-58.026667 85.333333-58.026667 126.293333 3.413333 40.96-17.066667 81.92-47.786667 112.64L539.306667 375.466667c6.826667 3.413333 10.24 6.826667 17.066666 6.826666zM211.626667 1024c-44.373333 0-85.333333-13.653333-122.88-40.96-3.413333-3.413333-6.826667-10.24-6.826667-13.653333 0-6.826667 3.413333-10.24 6.826667-13.653334l146.773333-88.746666c-3.413333-44.373333-27.306667-81.92-68.266667-98.986667L27.306667 853.333333c-3.413333 3.413333-10.24 3.413333-17.066667 0s-10.24-6.826667-10.24-13.653333v-3.413333-23.893334C0 699.733333 85.333333 614.4 204.8 614.4c37.546667 0 68.266667-10.24 92.16-34.133333l71.68-75.093334c3.413333-3.413333 6.826667-6.826667 13.653333-6.826666 3.413333 0 10.24 3.413333 13.653334 3.413333 10.24 10.24 20.48 23.893333 23.893333 40.96 6.826667 20.48 20.48 40.96 44.373333 64.853333 6.826667 6.826667 13.653333 6.826667 17.066667 0l34.133333-34.133333c3.413333-3.413333 6.826667-3.413333 13.653334-3.413333 3.413333 0 10.24 3.413333 13.653333 3.413333l20.48 20.48c6.826667 6.826667 6.826667 17.066667 0 23.893333L464.213333 716.8c-23.893333 23.893333-37.546667 58.026667-37.546666 88.746667 3.413333 51.2-20.48 102.4-64.853334 150.186666-47.786667 44.373333-98.986667 68.266667-150.186666 68.266667z m-78.506667-54.613333c23.893333 13.653333 51.2 20.48 78.506667 20.48 44.373333 0 85.333333-20.48 119.466666-58.026667 40.96-44.373333 58.026667-81.92 58.026667-126.293333-3.413333-40.96 17.066667-81.92 47.786667-112.64l51.2-51.2c-17.066667 6.826667-37.546667 3.413333-51.2-10.24-27.306667-27.306667-44.373333-51.2-51.2-78.506667 0-3.413333-3.413333-10.24-6.826667-13.653333l-58.026667 61.44c-27.306667 30.72-68.266667 47.786667-116.053333 47.786666-95.573333 0-170.666667 68.266667-170.666667 160.426667l126.293334-75.093333c3.413333-3.413333 10.24-3.413333 17.066666 0l10.24 3.413333c51.2 27.306667 81.92 81.92 81.92 139.946667 0 6.826667-3.413333 10.24-6.826666 13.653333l-129.706667 78.506667z" fill="#0099ff" p-id="15017"></path></svg>