<svg xmlns="http://www.w3.org/2000/svg" width="14" height="14" viewBox="0 0 14 14">
  <defs>
    <style>
      .cls-1, .cls-2 {
        fill: #ced0d8;
      }

      .cls-1 {
        opacity: 0;
      }
    </style>
  </defs>
  <g id="组_806" data-name="组 806" transform="translate(-0.261)">
    <rect id="矩形_922" data-name="矩形 922" class="cls-1" width="14" height="14" transform="translate(0.261)"/>
    <path id="路径_568" data-name="路径 568" class="cls-2" d="M91.333,8.167a.592.592,0,0,0-.6.583V9.917a.6.6,0,0,0,1.2,0V8.75a.592.592,0,0,0-.6-.583Zm3.6-3.5h-6V3.5a2.367,2.367,0,0,1,2.4-2.333,2.409,2.409,0,0,1,1.842.855l.026-.013a.6.6,0,0,0,.532.325.592.592,0,0,0,.6-.583.558.558,0,0,0-.069-.258l.011-.005c-.028-.039-.062-.073-.092-.111a.525.525,0,0,0-.036-.044A3.621,3.621,0,0,0,91.333,0a3.551,3.551,0,0,0-3.6,3.5V4.667A2.367,2.367,0,0,0,85.333,7v4.667A2.367,2.367,0,0,0,87.733,14h7.2a2.367,2.367,0,0,0,2.4-2.333V7A2.367,2.367,0,0,0,94.933,4.667Zm1.2,7a1.184,1.184,0,0,1-1.2,1.167h-7.2a1.184,1.184,0,0,1-1.2-1.167V7a1.184,1.184,0,0,1,1.2-1.167h7.2A1.184,1.184,0,0,1,96.133,7Z" transform="translate(-84.072)"/>
  </g>
</svg>
