<svg xmlns="http://www.w3.org/2000/svg" width="18" height="18" viewBox="0 0 18 18">
  <defs>
    <style>
      .cls-1, .cls-2 {
        fill: #fff;
      }

      .cls-1 {
        opacity: 0;
      }
    </style>
  </defs>
  <g id="组_2780" data-name="组 2780" transform="translate(-518 -514)">
    <rect id="矩形_2619" data-name="矩形 2619" class="cls-1" width="18" height="18" transform="translate(518 514)"/>
    <g id="组_2777" data-name="组 2777" transform="translate(519.286 515.286)">
      <path id="路径_6706" data-name="路径 6706" class="cls-2" d="M3.758,11.745a1.1,1.1,0,0,1-.779-.324L.1,8.538a.334.334,0,0,1-.072-.361.329.329,0,0,1,.305-.2H2.893V0H4.547V7.973H7.189a.328.328,0,0,1,.305.2.333.333,0,0,1-.07.361L4.539,11.421A1.107,1.107,0,0,1,3.758,11.745Z" transform="translate(11.513 11.745) rotate(180)"/>
      <path id="路径_6707" data-name="路径 6707" class="cls-2" d="M6014.328-2323.572H6001.1a1.1,1.1,0,0,1-1.1-1.1V-2337.9a1.1,1.1,0,0,1,1.1-1.1h3.3l-1.7,1.653h-1.053v12.123h12.123v-12.123H6012.7l-1.563-1.653h3.2a1.1,1.1,0,0,1,1.1,1.1v13.225A1.1,1.1,0,0,1,6014.328-2323.572Z" transform="translate(-6000.001 2339.001)"/>
    </g>
  </g>
</svg>
