<svg xmlns="http://www.w3.org/2000/svg" width="16" height="16" viewBox="0 0 16 16">
  <defs>
    <style>
      .cls-1, .cls-2 {
        fill: #ced0d8;
      }

      .cls-1 {
        opacity: 0;
      }
    </style>
  </defs>
  <g id="组_1767" data-name="组 1767" transform="translate(-24 -346)">
    <rect id="矩形_86" data-name="矩形 86" class="cls-1" width="16" height="16" transform="translate(24 346)"/>
    <path id="路径_75" data-name="路径 75" class="cls-2" d="M15.844,12.558a.129.129,0,0,1-.094-.061l-.968.225-.239.721.536.848a.119.119,0,0,1,.092.031c.086.091-.041.352-.283.582s-.507.343-.593.251a.1.1,0,0,1-.023-.053l-.841-.539-.717.241-.209.91a.1.1,0,0,1,.024.06c0,.125-.268.226-.6.226a.835.835,0,0,1-.567-.156h0a.11.11,0,0,1-.032-.07.092.092,0,0,1,.009-.033l-.215-.938-.717-.24-.792.508a.126.126,0,0,1-.027.1c-.088.088-.349-.031-.583-.267s-.351-.5-.266-.586h0l.556-.879-.239-.721-.908-.213a.14.14,0,0,1-.107.069c-.125,0-.218-.278-.209-.613a.779.779,0,0,1,.192-.585v-.02L9.06,11.12,9.3,10.4l-.48-.759a.1.1,0,0,1-.054-.027c-.086-.091.041-.352.283-.582A1.031,1.031,0,0,1,9.5,8.755l.036-.036.054.035a.1.1,0,0,1,.049.026s0,.006,0,.008l.765.49.717-.24.214-.932a.1.1,0,0,1-.008-.029.109.109,0,0,1,.03-.067l0-.012h.007a.875.875,0,0,1,.56-.147c.331,0,.6.1.6.226a.1.1,0,0,1-.022.058l.207.9.717.24L14.3,8.72l.026.026a.863.863,0,0,1,.5.294c.234.236.353.5.265.587a.115.115,0,0,1-.085.028l-.471.745.239.721,1.034.241v.007a.1.1,0,0,1,.062-.024c.125,0,.218.278.209.613s-.118.6-.243.6ZM13.271,10.4a2.155,2.155,0,0,0-2.782.081,1.933,1.933,0,0,0,2.732,2.735,1.961,1.961,0,0,0,.05-2.815ZM6.826,9.053a5.455,5.455,0,0,0-5.54,5.583.616.616,0,0,1-.6.453.616.616,0,0,1-.6-.453A6.544,6.544,0,0,1,4.468,8.373,4.673,4.673,0,0,1,2.334,4.527,4.494,4.494,0,1,1,6.826,9.053Zm0-7.921A3.323,3.323,0,0,0,3.455,4.527,3.323,3.323,0,0,0,6.826,7.921,3.323,3.323,0,0,0,10.2,4.527,3.321,3.321,0,0,0,6.826,1.132Z" transform="translate(23.913 346)"/>
  </g>
</svg>
