<svg xmlns="http://www.w3.org/2000/svg" width="22" height="22" viewBox="0 0 22 22">
  <defs>
    <style>
      .cls-1, .cls-2 {
        fill: #fff;
      }

      .cls-1 {
        opacity: 0;
      }
    </style>
  </defs>
  <g id="组_1683" data-name="组 1683" transform="translate(-20 -5117)">
    <rect id="矩形_990" data-name="矩形 990" class="cls-1" width="22" height="22" transform="translate(20 5117)"/>
    <path id="路径_105" data-name="路径 105" class="cls-2" d="M78.242,88.565H75.758V86.141a.809.809,0,1,0-1.613,0v2.424H71.612a.81.81,0,1,0,0,1.616h2.546v2.607a.809.809,0,1,0,1.613,0V90.181h2.5a.819.819,0,0,0,.87-.808A.833.833,0,0,0,78.242,88.565ZM80.5,94.808c-.013.013-.025.013-.025.026l-.025.026a8.071,8.071,0,1,1,.05-.052Zm6.781,5.565L82.3,95.408a9.282,9.282,0,0,0,1.45-2.372,9.5,9.5,0,1,0-2.685,3.61l4.991,4.966a.885.885,0,0,0,.618.261.863.863,0,0,0,.618-.261.89.89,0,0,0-.013-1.238Z" transform="translate(-45.536 5037.128)"/>
  </g>
</svg>
